<?xml version="1.0" encoding="utf-8" standalone="no"?>
<!DOCTYPE svg PUBLIC "-//W3C//DTD SVG 1.1//EN"
  "http://www.w3.org/Graphics/SVG/1.1/DTD/svg11.dtd">
<!-- Created with matplotlib (http://matplotlib.org/) -->
<svg height="864pt" version="1.1" viewBox="0 0 864 864" width="864pt" xmlns="http://www.w3.org/2000/svg" xmlns:xlink="http://www.w3.org/1999/xlink">
 <defs>
  <style type="text/css">
*{stroke-linecap:butt;stroke-linejoin:round;}
  </style>
 </defs>
 <g id="figure_1">
  <g id="patch_1">
   <path d="M 0 864 
L 864 864 
L 864 0 
L 0 0 
z
" style="fill:#ffffff;"/>
  </g>
  <g id="axes_1">
   <g id="line2d_1">
    <path clip-path="url(#p9298b52776)" d="M 174.96 175.53024 
L 442.8 415.03104 
" style="fill:none;stroke:#000000;stroke-linecap:square;stroke-width:1.5;"/>
   </g>
   <g id="line2d_2">
    <path clip-path="url(#p9298b52776)" d="M 174.96 175.53024 
L 442.8 425.67552 
" style="fill:none;stroke:#000000;stroke-linecap:square;stroke-width:1.5;"/>
   </g>
   <g id="line2d_3">
    <path clip-path="url(#p9298b52776)" d="M 174.96 175.53024 
L 442.8 436.32 
" style="fill:none;stroke:#000000;stroke-linecap:square;stroke-width:1.5;"/>
   </g>
   <g id="line2d_4">
    <path clip-path="url(#p9298b52776)" d="M 174.96 175.53024 
L 442.8 446.96448 
" style="fill:none;stroke:#000000;stroke-linecap:square;stroke-width:1.5;"/>
   </g>
   <g id="line2d_5">
    <path clip-path="url(#p9298b52776)" d="M 174.96 175.53024 
L 442.8 457.60896 
" style="fill:none;stroke:#000000;stroke-linecap:square;stroke-width:1.5;"/>
   </g>
   <g id="line2d_6">
    <path clip-path="url(#p9298b52776)" d="M 174.96 186.17472 
L 442.8 415.03104 
" style="fill:none;stroke:#000000;stroke-linecap:square;stroke-width:1.5;"/>
   </g>
   <g id="line2d_7">
    <path clip-path="url(#p9298b52776)" d="M 174.96 186.17472 
L 442.8 425.67552 
" style="fill:none;stroke:#000000;stroke-linecap:square;stroke-width:1.5;"/>
   </g>
   <g id="line2d_8">
    <path clip-path="url(#p9298b52776)" d="M 174.96 186.17472 
L 442.8 436.32 
" style="fill:none;stroke:#000000;stroke-linecap:square;stroke-width:1.5;"/>
   </g>
   <g id="line2d_9">
    <path clip-path="url(#p9298b52776)" d="M 174.96 186.17472 
L 442.8 446.96448 
" style="fill:none;stroke:#000000;stroke-linecap:square;stroke-width:1.5;"/>
   </g>
   <g id="line2d_10">
    <path clip-path="url(#p9298b52776)" d="M 174.96 186.17472 
L 442.8 457.60896 
" style="fill:none;stroke:#000000;stroke-linecap:square;stroke-width:1.5;"/>
   </g>
   <g id="line2d_11">
    <path clip-path="url(#p9298b52776)" d="M 174.96 196.8192 
L 442.8 415.03104 
" style="fill:none;stroke:#000000;stroke-linecap:square;stroke-width:1.5;"/>
   </g>
   <g id="line2d_12">
    <path clip-path="url(#p9298b52776)" d="M 174.96 196.8192 
L 442.8 425.67552 
" style="fill:none;stroke:#000000;stroke-linecap:square;stroke-width:1.5;"/>
   </g>
   <g id="line2d_13">
    <path clip-path="url(#p9298b52776)" d="M 174.96 196.8192 
L 442.8 436.32 
" style="fill:none;stroke:#000000;stroke-linecap:square;stroke-width:1.5;"/>
   </g>
   <g id="line2d_14">
    <path clip-path="url(#p9298b52776)" d="M 174.96 196.8192 
L 442.8 446.96448 
" style="fill:none;stroke:#000000;stroke-linecap:square;stroke-width:1.5;"/>
   </g>
   <g id="line2d_15">
    <path clip-path="url(#p9298b52776)" d="M 174.96 196.8192 
L 442.8 457.60896 
" style="fill:none;stroke:#000000;stroke-linecap:square;stroke-width:1.5;"/>
   </g>
   <g id="line2d_16">
    <path clip-path="url(#p9298b52776)" d="M 174.96 207.46368 
L 442.8 415.03104 
" style="fill:none;stroke:#000000;stroke-linecap:square;stroke-width:1.5;"/>
   </g>
   <g id="line2d_17">
    <path clip-path="url(#p9298b52776)" d="M 174.96 207.46368 
L 442.8 425.67552 
" style="fill:none;stroke:#000000;stroke-linecap:square;stroke-width:1.5;"/>
   </g>
   <g id="line2d_18">
    <path clip-path="url(#p9298b52776)" d="M 174.96 207.46368 
L 442.8 436.32 
" style="fill:none;stroke:#000000;stroke-linecap:square;stroke-width:1.5;"/>
   </g>
   <g id="line2d_19">
    <path clip-path="url(#p9298b52776)" d="M 174.96 207.46368 
L 442.8 446.96448 
" style="fill:none;stroke:#000000;stroke-linecap:square;stroke-width:1.5;"/>
   </g>
   <g id="line2d_20">
    <path clip-path="url(#p9298b52776)" d="M 174.96 207.46368 
L 442.8 457.60896 
" style="fill:none;stroke:#000000;stroke-linecap:square;stroke-width:1.5;"/>
   </g>
   <g id="line2d_21">
    <path clip-path="url(#p9298b52776)" d="M 174.96 218.10816 
L 442.8 415.03104 
" style="fill:none;stroke:#000000;stroke-linecap:square;stroke-width:1.5;"/>
   </g>
   <g id="line2d_22">
    <path clip-path="url(#p9298b52776)" d="M 174.96 218.10816 
L 442.8 425.67552 
" style="fill:none;stroke:#000000;stroke-linecap:square;stroke-width:1.5;"/>
   </g>
   <g id="line2d_23">
    <path clip-path="url(#p9298b52776)" d="M 174.96 218.10816 
L 442.8 436.32 
" style="fill:none;stroke:#000000;stroke-linecap:square;stroke-width:1.5;"/>
   </g>
   <g id="line2d_24">
    <path clip-path="url(#p9298b52776)" d="M 174.96 218.10816 
L 442.8 446.96448 
" style="fill:none;stroke:#000000;stroke-linecap:square;stroke-width:1.5;"/>
   </g>
   <g id="line2d_25">
    <path clip-path="url(#p9298b52776)" d="M 174.96 218.10816 
L 442.8 457.60896 
" style="fill:none;stroke:#000000;stroke-linecap:square;stroke-width:1.5;"/>
   </g>
   <g id="line2d_26">
    <path clip-path="url(#p9298b52776)" d="M 174.96 228.75264 
L 442.8 415.03104 
" style="fill:none;stroke:#000000;stroke-linecap:square;stroke-width:1.5;"/>
   </g>
   <g id="line2d_27">
    <path clip-path="url(#p9298b52776)" d="M 174.96 228.75264 
L 442.8 425.67552 
" style="fill:none;stroke:#000000;stroke-linecap:square;stroke-width:1.5;"/>
   </g>
   <g id="line2d_28">
    <path clip-path="url(#p9298b52776)" d="M 174.96 228.75264 
L 442.8 436.32 
" style="fill:none;stroke:#000000;stroke-linecap:square;stroke-width:1.5;"/>
   </g>
   <g id="line2d_29">
    <path clip-path="url(#p9298b52776)" d="M 174.96 228.75264 
L 442.8 446.96448 
" style="fill:none;stroke:#000000;stroke-linecap:square;stroke-width:1.5;"/>
   </g>
   <g id="line2d_30">
    <path clip-path="url(#p9298b52776)" d="M 174.96 228.75264 
L 442.8 457.60896 
" style="fill:none;stroke:#000000;stroke-linecap:square;stroke-width:1.5;"/>
   </g>
   <g id="line2d_31">
    <path clip-path="url(#p9298b52776)" d="M 174.96 239.39712 
L 442.8 415.03104 
" style="fill:none;stroke:#000000;stroke-linecap:square;stroke-width:1.5;"/>
   </g>
   <g id="line2d_32">
    <path clip-path="url(#p9298b52776)" d="M 174.96 239.39712 
L 442.8 425.67552 
" style="fill:none;stroke:#000000;stroke-linecap:square;stroke-width:1.5;"/>
   </g>
   <g id="line2d_33">
    <path clip-path="url(#p9298b52776)" d="M 174.96 239.39712 
L 442.8 436.32 
" style="fill:none;stroke:#000000;stroke-linecap:square;stroke-width:1.5;"/>
   </g>
   <g id="line2d_34">
    <path clip-path="url(#p9298b52776)" d="M 174.96 239.39712 
L 442.8 446.96448 
" style="fill:none;stroke:#000000;stroke-linecap:square;stroke-width:1.5;"/>
   </g>
   <g id="line2d_35">
    <path clip-path="url(#p9298b52776)" d="M 174.96 239.39712 
L 442.8 457.60896 
" style="fill:none;stroke:#000000;stroke-linecap:square;stroke-width:1.5;"/>
   </g>
   <g id="line2d_36">
    <path clip-path="url(#p9298b52776)" d="M 174.96 250.0416 
L 442.8 415.03104 
" style="fill:none;stroke:#000000;stroke-linecap:square;stroke-width:1.5;"/>
   </g>
   <g id="line2d_37">
    <path clip-path="url(#p9298b52776)" d="M 174.96 250.0416 
L 442.8 425.67552 
" style="fill:none;stroke:#000000;stroke-linecap:square;stroke-width:1.5;"/>
   </g>
   <g id="line2d_38">
    <path clip-path="url(#p9298b52776)" d="M 174.96 250.0416 
L 442.8 436.32 
" style="fill:none;stroke:#000000;stroke-linecap:square;stroke-width:1.5;"/>
   </g>
   <g id="line2d_39">
    <path clip-path="url(#p9298b52776)" d="M 174.96 250.0416 
L 442.8 446.96448 
" style="fill:none;stroke:#000000;stroke-linecap:square;stroke-width:1.5;"/>
   </g>
   <g id="line2d_40">
    <path clip-path="url(#p9298b52776)" d="M 174.96 250.0416 
L 442.8 457.60896 
" style="fill:none;stroke:#000000;stroke-linecap:square;stroke-width:1.5;"/>
   </g>
   <g id="line2d_41">
    <path clip-path="url(#p9298b52776)" d="M 174.96 260.68608 
L 442.8 415.03104 
" style="fill:none;stroke:#000000;stroke-linecap:square;stroke-width:1.5;"/>
   </g>
   <g id="line2d_42">
    <path clip-path="url(#p9298b52776)" d="M 174.96 260.68608 
L 442.8 425.67552 
" style="fill:none;stroke:#000000;stroke-linecap:square;stroke-width:1.5;"/>
   </g>
   <g id="line2d_43">
    <path clip-path="url(#p9298b52776)" d="M 174.96 260.68608 
L 442.8 436.32 
" style="fill:none;stroke:#000000;stroke-linecap:square;stroke-width:1.5;"/>
   </g>
   <g id="line2d_44">
    <path clip-path="url(#p9298b52776)" d="M 174.96 260.68608 
L 442.8 446.96448 
" style="fill:none;stroke:#000000;stroke-linecap:square;stroke-width:1.5;"/>
   </g>
   <g id="line2d_45">
    <path clip-path="url(#p9298b52776)" d="M 174.96 260.68608 
L 442.8 457.60896 
" style="fill:none;stroke:#000000;stroke-linecap:square;stroke-width:1.5;"/>
   </g>
   <g id="line2d_46">
    <path clip-path="url(#p9298b52776)" d="M 174.96 271.33056 
L 442.8 415.03104 
" style="fill:none;stroke:#000000;stroke-linecap:square;stroke-width:1.5;"/>
   </g>
   <g id="line2d_47">
    <path clip-path="url(#p9298b52776)" d="M 174.96 271.33056 
L 442.8 425.67552 
" style="fill:none;stroke:#000000;stroke-linecap:square;stroke-width:1.5;"/>
   </g>
   <g id="line2d_48">
    <path clip-path="url(#p9298b52776)" d="M 174.96 271.33056 
L 442.8 436.32 
" style="fill:none;stroke:#000000;stroke-linecap:square;stroke-width:1.5;"/>
   </g>
   <g id="line2d_49">
    <path clip-path="url(#p9298b52776)" d="M 174.96 271.33056 
L 442.8 446.96448 
" style="fill:none;stroke:#000000;stroke-linecap:square;stroke-width:1.5;"/>
   </g>
   <g id="line2d_50">
    <path clip-path="url(#p9298b52776)" d="M 174.96 271.33056 
L 442.8 457.60896 
" style="fill:none;stroke:#000000;stroke-linecap:square;stroke-width:1.5;"/>
   </g>
   <g id="line2d_51">
    <path clip-path="url(#p9298b52776)" d="M 174.96 281.97504 
L 442.8 415.03104 
" style="fill:none;stroke:#000000;stroke-linecap:square;stroke-width:1.5;"/>
   </g>
   <g id="line2d_52">
    <path clip-path="url(#p9298b52776)" d="M 174.96 281.97504 
L 442.8 425.67552 
" style="fill:none;stroke:#000000;stroke-linecap:square;stroke-width:1.5;"/>
   </g>
   <g id="line2d_53">
    <path clip-path="url(#p9298b52776)" d="M 174.96 281.97504 
L 442.8 436.32 
" style="fill:none;stroke:#000000;stroke-linecap:square;stroke-width:1.5;"/>
   </g>
   <g id="line2d_54">
    <path clip-path="url(#p9298b52776)" d="M 174.96 281.97504 
L 442.8 446.96448 
" style="fill:none;stroke:#000000;stroke-linecap:square;stroke-width:1.5;"/>
   </g>
   <g id="line2d_55">
    <path clip-path="url(#p9298b52776)" d="M 174.96 281.97504 
L 442.8 457.60896 
" style="fill:none;stroke:#000000;stroke-linecap:square;stroke-width:1.5;"/>
   </g>
   <g id="line2d_56">
    <path clip-path="url(#p9298b52776)" d="M 174.96 292.61952 
L 442.8 415.03104 
" style="fill:none;stroke:#000000;stroke-linecap:square;stroke-width:1.5;"/>
   </g>
   <g id="line2d_57">
    <path clip-path="url(#p9298b52776)" d="M 174.96 292.61952 
L 442.8 425.67552 
" style="fill:none;stroke:#000000;stroke-linecap:square;stroke-width:1.5;"/>
   </g>
   <g id="line2d_58">
    <path clip-path="url(#p9298b52776)" d="M 174.96 292.61952 
L 442.8 436.32 
" style="fill:none;stroke:#000000;stroke-linecap:square;stroke-width:1.5;"/>
   </g>
   <g id="line2d_59">
    <path clip-path="url(#p9298b52776)" d="M 174.96 292.61952 
L 442.8 446.96448 
" style="fill:none;stroke:#000000;stroke-linecap:square;stroke-width:1.5;"/>
   </g>
   <g id="line2d_60">
    <path clip-path="url(#p9298b52776)" d="M 174.96 292.61952 
L 442.8 457.60896 
" style="fill:none;stroke:#000000;stroke-linecap:square;stroke-width:1.5;"/>
   </g>
   <g id="line2d_61">
    <path clip-path="url(#p9298b52776)" d="M 174.96 303.264 
L 442.8 415.03104 
" style="fill:none;stroke:#000000;stroke-linecap:square;stroke-width:1.5;"/>
   </g>
   <g id="line2d_62">
    <path clip-path="url(#p9298b52776)" d="M 174.96 303.264 
L 442.8 425.67552 
" style="fill:none;stroke:#000000;stroke-linecap:square;stroke-width:1.5;"/>
   </g>
   <g id="line2d_63">
    <path clip-path="url(#p9298b52776)" d="M 174.96 303.264 
L 442.8 436.32 
" style="fill:none;stroke:#000000;stroke-linecap:square;stroke-width:1.5;"/>
   </g>
   <g id="line2d_64">
    <path clip-path="url(#p9298b52776)" d="M 174.96 303.264 
L 442.8 446.96448 
" style="fill:none;stroke:#000000;stroke-linecap:square;stroke-width:1.5;"/>
   </g>
   <g id="line2d_65">
    <path clip-path="url(#p9298b52776)" d="M 174.96 303.264 
L 442.8 457.60896 
" style="fill:none;stroke:#000000;stroke-linecap:square;stroke-width:1.5;"/>
   </g>
   <g id="line2d_66">
    <path clip-path="url(#p9298b52776)" d="M 174.96 313.90848 
L 442.8 415.03104 
" style="fill:none;stroke:#000000;stroke-linecap:square;stroke-width:1.5;"/>
   </g>
   <g id="line2d_67">
    <path clip-path="url(#p9298b52776)" d="M 174.96 313.90848 
L 442.8 425.67552 
" style="fill:none;stroke:#000000;stroke-linecap:square;stroke-width:1.5;"/>
   </g>
   <g id="line2d_68">
    <path clip-path="url(#p9298b52776)" d="M 174.96 313.90848 
L 442.8 436.32 
" style="fill:none;stroke:#000000;stroke-linecap:square;stroke-width:1.5;"/>
   </g>
   <g id="line2d_69">
    <path clip-path="url(#p9298b52776)" d="M 174.96 313.90848 
L 442.8 446.96448 
" style="fill:none;stroke:#000000;stroke-linecap:square;stroke-width:1.5;"/>
   </g>
   <g id="line2d_70">
    <path clip-path="url(#p9298b52776)" d="M 174.96 313.90848 
L 442.8 457.60896 
" style="fill:none;stroke:#000000;stroke-linecap:square;stroke-width:1.5;"/>
   </g>
   <g id="line2d_71">
    <path clip-path="url(#p9298b52776)" d="M 174.96 324.55296 
L 442.8 415.03104 
" style="fill:none;stroke:#000000;stroke-linecap:square;stroke-width:1.5;"/>
   </g>
   <g id="line2d_72">
    <path clip-path="url(#p9298b52776)" d="M 174.96 324.55296 
L 442.8 425.67552 
" style="fill:none;stroke:#000000;stroke-linecap:square;stroke-width:1.5;"/>
   </g>
   <g id="line2d_73">
    <path clip-path="url(#p9298b52776)" d="M 174.96 324.55296 
L 442.8 436.32 
" style="fill:none;stroke:#000000;stroke-linecap:square;stroke-width:1.5;"/>
   </g>
   <g id="line2d_74">
    <path clip-path="url(#p9298b52776)" d="M 174.96 324.55296 
L 442.8 446.96448 
" style="fill:none;stroke:#000000;stroke-linecap:square;stroke-width:1.5;"/>
   </g>
   <g id="line2d_75">
    <path clip-path="url(#p9298b52776)" d="M 174.96 324.55296 
L 442.8 457.60896 
" style="fill:none;stroke:#000000;stroke-linecap:square;stroke-width:1.5;"/>
   </g>
   <g id="line2d_76">
    <path clip-path="url(#p9298b52776)" d="M 174.96 335.19744 
L 442.8 415.03104 
" style="fill:none;stroke:#000000;stroke-linecap:square;stroke-width:1.5;"/>
   </g>
   <g id="line2d_77">
    <path clip-path="url(#p9298b52776)" d="M 174.96 335.19744 
L 442.8 425.67552 
" style="fill:none;stroke:#000000;stroke-linecap:square;stroke-width:1.5;"/>
   </g>
   <g id="line2d_78">
    <path clip-path="url(#p9298b52776)" d="M 174.96 335.19744 
L 442.8 436.32 
" style="fill:none;stroke:#000000;stroke-linecap:square;stroke-width:1.5;"/>
   </g>
   <g id="line2d_79">
    <path clip-path="url(#p9298b52776)" d="M 174.96 335.19744 
L 442.8 446.96448 
" style="fill:none;stroke:#000000;stroke-linecap:square;stroke-width:1.5;"/>
   </g>
   <g id="line2d_80">
    <path clip-path="url(#p9298b52776)" d="M 174.96 335.19744 
L 442.8 457.60896 
" style="fill:none;stroke:#000000;stroke-linecap:square;stroke-width:1.5;"/>
   </g>
   <g id="line2d_81">
    <path clip-path="url(#p9298b52776)" d="M 174.96 345.84192 
L 442.8 415.03104 
" style="fill:none;stroke:#000000;stroke-linecap:square;stroke-width:1.5;"/>
   </g>
   <g id="line2d_82">
    <path clip-path="url(#p9298b52776)" d="M 174.96 345.84192 
L 442.8 425.67552 
" style="fill:none;stroke:#000000;stroke-linecap:square;stroke-width:1.5;"/>
   </g>
   <g id="line2d_83">
    <path clip-path="url(#p9298b52776)" d="M 174.96 345.84192 
L 442.8 436.32 
" style="fill:none;stroke:#000000;stroke-linecap:square;stroke-width:1.5;"/>
   </g>
   <g id="line2d_84">
    <path clip-path="url(#p9298b52776)" d="M 174.96 345.84192 
L 442.8 446.96448 
" style="fill:none;stroke:#000000;stroke-linecap:square;stroke-width:1.5;"/>
   </g>
   <g id="line2d_85">
    <path clip-path="url(#p9298b52776)" d="M 174.96 345.84192 
L 442.8 457.60896 
" style="fill:none;stroke:#000000;stroke-linecap:square;stroke-width:1.5;"/>
   </g>
   <g id="line2d_86">
    <path clip-path="url(#p9298b52776)" d="M 174.96 356.4864 
L 442.8 415.03104 
" style="fill:none;stroke:#000000;stroke-linecap:square;stroke-width:1.5;"/>
   </g>
   <g id="line2d_87">
    <path clip-path="url(#p9298b52776)" d="M 174.96 356.4864 
L 442.8 425.67552 
" style="fill:none;stroke:#000000;stroke-linecap:square;stroke-width:1.5;"/>
   </g>
   <g id="line2d_88">
    <path clip-path="url(#p9298b52776)" d="M 174.96 356.4864 
L 442.8 436.32 
" style="fill:none;stroke:#000000;stroke-linecap:square;stroke-width:1.5;"/>
   </g>
   <g id="line2d_89">
    <path clip-path="url(#p9298b52776)" d="M 174.96 356.4864 
L 442.8 446.96448 
" style="fill:none;stroke:#000000;stroke-linecap:square;stroke-width:1.5;"/>
   </g>
   <g id="line2d_90">
    <path clip-path="url(#p9298b52776)" d="M 174.96 356.4864 
L 442.8 457.60896 
" style="fill:none;stroke:#000000;stroke-linecap:square;stroke-width:1.5;"/>
   </g>
   <g id="line2d_91">
    <path clip-path="url(#p9298b52776)" d="M 174.96 367.13088 
L 442.8 415.03104 
" style="fill:none;stroke:#000000;stroke-linecap:square;stroke-width:1.5;"/>
   </g>
   <g id="line2d_92">
    <path clip-path="url(#p9298b52776)" d="M 174.96 367.13088 
L 442.8 425.67552 
" style="fill:none;stroke:#000000;stroke-linecap:square;stroke-width:1.5;"/>
   </g>
   <g id="line2d_93">
    <path clip-path="url(#p9298b52776)" d="M 174.96 367.13088 
L 442.8 436.32 
" style="fill:none;stroke:#000000;stroke-linecap:square;stroke-width:1.5;"/>
   </g>
   <g id="line2d_94">
    <path clip-path="url(#p9298b52776)" d="M 174.96 367.13088 
L 442.8 446.96448 
" style="fill:none;stroke:#000000;stroke-linecap:square;stroke-width:1.5;"/>
   </g>
   <g id="line2d_95">
    <path clip-path="url(#p9298b52776)" d="M 174.96 367.13088 
L 442.8 457.60896 
" style="fill:none;stroke:#000000;stroke-linecap:square;stroke-width:1.5;"/>
   </g>
   <g id="line2d_96">
    <path clip-path="url(#p9298b52776)" d="M 174.96 377.77536 
L 442.8 415.03104 
" style="fill:none;stroke:#000000;stroke-linecap:square;stroke-width:1.5;"/>
   </g>
   <g id="line2d_97">
    <path clip-path="url(#p9298b52776)" d="M 174.96 377.77536 
L 442.8 425.67552 
" style="fill:none;stroke:#000000;stroke-linecap:square;stroke-width:1.5;"/>
   </g>
   <g id="line2d_98">
    <path clip-path="url(#p9298b52776)" d="M 174.96 377.77536 
L 442.8 436.32 
" style="fill:none;stroke:#000000;stroke-linecap:square;stroke-width:1.5;"/>
   </g>
   <g id="line2d_99">
    <path clip-path="url(#p9298b52776)" d="M 174.96 377.77536 
L 442.8 446.96448 
" style="fill:none;stroke:#000000;stroke-linecap:square;stroke-width:1.5;"/>
   </g>
   <g id="line2d_100">
    <path clip-path="url(#p9298b52776)" d="M 174.96 377.77536 
L 442.8 457.60896 
" style="fill:none;stroke:#000000;stroke-linecap:square;stroke-width:1.5;"/>
   </g>
   <g id="line2d_101">
    <path clip-path="url(#p9298b52776)" d="M 174.96 388.41984 
L 442.8 415.03104 
" style="fill:none;stroke:#000000;stroke-linecap:square;stroke-width:1.5;"/>
   </g>
   <g id="line2d_102">
    <path clip-path="url(#p9298b52776)" d="M 174.96 388.41984 
L 442.8 425.67552 
" style="fill:none;stroke:#000000;stroke-linecap:square;stroke-width:1.5;"/>
   </g>
   <g id="line2d_103">
    <path clip-path="url(#p9298b52776)" d="M 174.96 388.41984 
L 442.8 436.32 
" style="fill:none;stroke:#000000;stroke-linecap:square;stroke-width:1.5;"/>
   </g>
   <g id="line2d_104">
    <path clip-path="url(#p9298b52776)" d="M 174.96 388.41984 
L 442.8 446.96448 
" style="fill:none;stroke:#000000;stroke-linecap:square;stroke-width:1.5;"/>
   </g>
   <g id="line2d_105">
    <path clip-path="url(#p9298b52776)" d="M 174.96 388.41984 
L 442.8 457.60896 
" style="fill:none;stroke:#000000;stroke-linecap:square;stroke-width:1.5;"/>
   </g>
   <g id="line2d_106">
    <path clip-path="url(#p9298b52776)" d="M 174.96 399.06432 
L 442.8 415.03104 
" style="fill:none;stroke:#000000;stroke-linecap:square;stroke-width:1.5;"/>
   </g>
   <g id="line2d_107">
    <path clip-path="url(#p9298b52776)" d="M 174.96 399.06432 
L 442.8 425.67552 
" style="fill:none;stroke:#000000;stroke-linecap:square;stroke-width:1.5;"/>
   </g>
   <g id="line2d_108">
    <path clip-path="url(#p9298b52776)" d="M 174.96 399.06432 
L 442.8 436.32 
" style="fill:none;stroke:#000000;stroke-linecap:square;stroke-width:1.5;"/>
   </g>
   <g id="line2d_109">
    <path clip-path="url(#p9298b52776)" d="M 174.96 399.06432 
L 442.8 446.96448 
" style="fill:none;stroke:#000000;stroke-linecap:square;stroke-width:1.5;"/>
   </g>
   <g id="line2d_110">
    <path clip-path="url(#p9298b52776)" d="M 174.96 399.06432 
L 442.8 457.60896 
" style="fill:none;stroke:#000000;stroke-linecap:square;stroke-width:1.5;"/>
   </g>
   <g id="line2d_111">
    <path clip-path="url(#p9298b52776)" d="M 174.96 409.7088 
L 442.8 415.03104 
" style="fill:none;stroke:#000000;stroke-linecap:square;stroke-width:1.5;"/>
   </g>
   <g id="line2d_112">
    <path clip-path="url(#p9298b52776)" d="M 174.96 409.7088 
L 442.8 425.67552 
" style="fill:none;stroke:#000000;stroke-linecap:square;stroke-width:1.5;"/>
   </g>
   <g id="line2d_113">
    <path clip-path="url(#p9298b52776)" d="M 174.96 409.7088 
L 442.8 436.32 
" style="fill:none;stroke:#000000;stroke-linecap:square;stroke-width:1.5;"/>
   </g>
   <g id="line2d_114">
    <path clip-path="url(#p9298b52776)" d="M 174.96 409.7088 
L 442.8 446.96448 
" style="fill:none;stroke:#000000;stroke-linecap:square;stroke-width:1.5;"/>
   </g>
   <g id="line2d_115">
    <path clip-path="url(#p9298b52776)" d="M 174.96 409.7088 
L 442.8 457.60896 
" style="fill:none;stroke:#000000;stroke-linecap:square;stroke-width:1.5;"/>
   </g>
   <g id="line2d_116">
    <path clip-path="url(#p9298b52776)" d="M 174.96 420.35328 
L 442.8 415.03104 
" style="fill:none;stroke:#000000;stroke-linecap:square;stroke-width:1.5;"/>
   </g>
   <g id="line2d_117">
    <path clip-path="url(#p9298b52776)" d="M 174.96 420.35328 
L 442.8 425.67552 
" style="fill:none;stroke:#000000;stroke-linecap:square;stroke-width:1.5;"/>
   </g>
   <g id="line2d_118">
    <path clip-path="url(#p9298b52776)" d="M 174.96 420.35328 
L 442.8 436.32 
" style="fill:none;stroke:#000000;stroke-linecap:square;stroke-width:1.5;"/>
   </g>
   <g id="line2d_119">
    <path clip-path="url(#p9298b52776)" d="M 174.96 420.35328 
L 442.8 446.96448 
" style="fill:none;stroke:#000000;stroke-linecap:square;stroke-width:1.5;"/>
   </g>
   <g id="line2d_120">
    <path clip-path="url(#p9298b52776)" d="M 174.96 420.35328 
L 442.8 457.60896 
" style="fill:none;stroke:#000000;stroke-linecap:square;stroke-width:1.5;"/>
   </g>
   <g id="line2d_121">
    <path clip-path="url(#p9298b52776)" d="M 174.96 430.99776 
L 442.8 415.03104 
" style="fill:none;stroke:#000000;stroke-linecap:square;stroke-width:1.5;"/>
   </g>
   <g id="line2d_122">
    <path clip-path="url(#p9298b52776)" d="M 174.96 430.99776 
L 442.8 425.67552 
" style="fill:none;stroke:#000000;stroke-linecap:square;stroke-width:1.5;"/>
   </g>
   <g id="line2d_123">
    <path clip-path="url(#p9298b52776)" d="M 174.96 430.99776 
L 442.8 436.32 
" style="fill:none;stroke:#000000;stroke-linecap:square;stroke-width:1.5;"/>
   </g>
   <g id="line2d_124">
    <path clip-path="url(#p9298b52776)" d="M 174.96 430.99776 
L 442.8 446.96448 
" style="fill:none;stroke:#000000;stroke-linecap:square;stroke-width:1.5;"/>
   </g>
   <g id="line2d_125">
    <path clip-path="url(#p9298b52776)" d="M 174.96 430.99776 
L 442.8 457.60896 
" style="fill:none;stroke:#000000;stroke-linecap:square;stroke-width:1.5;"/>
   </g>
   <g id="line2d_126">
    <path clip-path="url(#p9298b52776)" d="M 174.96 441.64224 
L 442.8 415.03104 
" style="fill:none;stroke:#000000;stroke-linecap:square;stroke-width:1.5;"/>
   </g>
   <g id="line2d_127">
    <path clip-path="url(#p9298b52776)" d="M 174.96 441.64224 
L 442.8 425.67552 
" style="fill:none;stroke:#000000;stroke-linecap:square;stroke-width:1.5;"/>
   </g>
   <g id="line2d_128">
    <path clip-path="url(#p9298b52776)" d="M 174.96 441.64224 
L 442.8 436.32 
" style="fill:none;stroke:#000000;stroke-linecap:square;stroke-width:1.5;"/>
   </g>
   <g id="line2d_129">
    <path clip-path="url(#p9298b52776)" d="M 174.96 441.64224 
L 442.8 446.96448 
" style="fill:none;stroke:#000000;stroke-linecap:square;stroke-width:1.5;"/>
   </g>
   <g id="line2d_130">
    <path clip-path="url(#p9298b52776)" d="M 174.96 441.64224 
L 442.8 457.60896 
" style="fill:none;stroke:#000000;stroke-linecap:square;stroke-width:1.5;"/>
   </g>
   <g id="line2d_131">
    <path clip-path="url(#p9298b52776)" d="M 174.96 452.28672 
L 442.8 415.03104 
" style="fill:none;stroke:#000000;stroke-linecap:square;stroke-width:1.5;"/>
   </g>
   <g id="line2d_132">
    <path clip-path="url(#p9298b52776)" d="M 174.96 452.28672 
L 442.8 425.67552 
" style="fill:none;stroke:#000000;stroke-linecap:square;stroke-width:1.5;"/>
   </g>
   <g id="line2d_133">
    <path clip-path="url(#p9298b52776)" d="M 174.96 452.28672 
L 442.8 436.32 
" style="fill:none;stroke:#000000;stroke-linecap:square;stroke-width:1.5;"/>
   </g>
   <g id="line2d_134">
    <path clip-path="url(#p9298b52776)" d="M 174.96 452.28672 
L 442.8 446.96448 
" style="fill:none;stroke:#000000;stroke-linecap:square;stroke-width:1.5;"/>
   </g>
   <g id="line2d_135">
    <path clip-path="url(#p9298b52776)" d="M 174.96 452.28672 
L 442.8 457.60896 
" style="fill:none;stroke:#000000;stroke-linecap:square;stroke-width:1.5;"/>
   </g>
   <g id="line2d_136">
    <path clip-path="url(#p9298b52776)" d="M 174.96 462.9312 
L 442.8 415.03104 
" style="fill:none;stroke:#000000;stroke-linecap:square;stroke-width:1.5;"/>
   </g>
   <g id="line2d_137">
    <path clip-path="url(#p9298b52776)" d="M 174.96 462.9312 
L 442.8 425.67552 
" style="fill:none;stroke:#000000;stroke-linecap:square;stroke-width:1.5;"/>
   </g>
   <g id="line2d_138">
    <path clip-path="url(#p9298b52776)" d="M 174.96 462.9312 
L 442.8 436.32 
" style="fill:none;stroke:#000000;stroke-linecap:square;stroke-width:1.5;"/>
   </g>
   <g id="line2d_139">
    <path clip-path="url(#p9298b52776)" d="M 174.96 462.9312 
L 442.8 446.96448 
" style="fill:none;stroke:#000000;stroke-linecap:square;stroke-width:1.5;"/>
   </g>
   <g id="line2d_140">
    <path clip-path="url(#p9298b52776)" d="M 174.96 462.9312 
L 442.8 457.60896 
" style="fill:none;stroke:#000000;stroke-linecap:square;stroke-width:1.5;"/>
   </g>
   <g id="line2d_141">
    <path clip-path="url(#p9298b52776)" d="M 174.96 473.57568 
L 442.8 415.03104 
" style="fill:none;stroke:#000000;stroke-linecap:square;stroke-width:1.5;"/>
   </g>
   <g id="line2d_142">
    <path clip-path="url(#p9298b52776)" d="M 174.96 473.57568 
L 442.8 425.67552 
" style="fill:none;stroke:#000000;stroke-linecap:square;stroke-width:1.5;"/>
   </g>
   <g id="line2d_143">
    <path clip-path="url(#p9298b52776)" d="M 174.96 473.57568 
L 442.8 436.32 
" style="fill:none;stroke:#000000;stroke-linecap:square;stroke-width:1.5;"/>
   </g>
   <g id="line2d_144">
    <path clip-path="url(#p9298b52776)" d="M 174.96 473.57568 
L 442.8 446.96448 
" style="fill:none;stroke:#000000;stroke-linecap:square;stroke-width:1.5;"/>
   </g>
   <g id="line2d_145">
    <path clip-path="url(#p9298b52776)" d="M 174.96 473.57568 
L 442.8 457.60896 
" style="fill:none;stroke:#000000;stroke-linecap:square;stroke-width:1.5;"/>
   </g>
   <g id="line2d_146">
    <path clip-path="url(#p9298b52776)" d="M 174.96 484.22016 
L 442.8 415.03104 
" style="fill:none;stroke:#000000;stroke-linecap:square;stroke-width:1.5;"/>
   </g>
   <g id="line2d_147">
    <path clip-path="url(#p9298b52776)" d="M 174.96 484.22016 
L 442.8 425.67552 
" style="fill:none;stroke:#000000;stroke-linecap:square;stroke-width:1.5;"/>
   </g>
   <g id="line2d_148">
    <path clip-path="url(#p9298b52776)" d="M 174.96 484.22016 
L 442.8 436.32 
" style="fill:none;stroke:#000000;stroke-linecap:square;stroke-width:1.5;"/>
   </g>
   <g id="line2d_149">
    <path clip-path="url(#p9298b52776)" d="M 174.96 484.22016 
L 442.8 446.96448 
" style="fill:none;stroke:#000000;stroke-linecap:square;stroke-width:1.5;"/>
   </g>
   <g id="line2d_150">
    <path clip-path="url(#p9298b52776)" d="M 174.96 484.22016 
L 442.8 457.60896 
" style="fill:none;stroke:#000000;stroke-linecap:square;stroke-width:1.5;"/>
   </g>
   <g id="line2d_151">
    <path clip-path="url(#p9298b52776)" d="M 174.96 494.86464 
L 442.8 415.03104 
" style="fill:none;stroke:#000000;stroke-linecap:square;stroke-width:1.5;"/>
   </g>
   <g id="line2d_152">
    <path clip-path="url(#p9298b52776)" d="M 174.96 494.86464 
L 442.8 425.67552 
" style="fill:none;stroke:#000000;stroke-linecap:square;stroke-width:1.5;"/>
   </g>
   <g id="line2d_153">
    <path clip-path="url(#p9298b52776)" d="M 174.96 494.86464 
L 442.8 436.32 
" style="fill:none;stroke:#000000;stroke-linecap:square;stroke-width:1.5;"/>
   </g>
   <g id="line2d_154">
    <path clip-path="url(#p9298b52776)" d="M 174.96 494.86464 
L 442.8 446.96448 
" style="fill:none;stroke:#000000;stroke-linecap:square;stroke-width:1.5;"/>
   </g>
   <g id="line2d_155">
    <path clip-path="url(#p9298b52776)" d="M 174.96 494.86464 
L 442.8 457.60896 
" style="fill:none;stroke:#000000;stroke-linecap:square;stroke-width:1.5;"/>
   </g>
   <g id="line2d_156">
    <path clip-path="url(#p9298b52776)" d="M 174.96 505.50912 
L 442.8 415.03104 
" style="fill:none;stroke:#000000;stroke-linecap:square;stroke-width:1.5;"/>
   </g>
   <g id="line2d_157">
    <path clip-path="url(#p9298b52776)" d="M 174.96 505.50912 
L 442.8 425.67552 
" style="fill:none;stroke:#000000;stroke-linecap:square;stroke-width:1.5;"/>
   </g>
   <g id="line2d_158">
    <path clip-path="url(#p9298b52776)" d="M 174.96 505.50912 
L 442.8 436.32 
" style="fill:none;stroke:#000000;stroke-linecap:square;stroke-width:1.5;"/>
   </g>
   <g id="line2d_159">
    <path clip-path="url(#p9298b52776)" d="M 174.96 505.50912 
L 442.8 446.96448 
" style="fill:none;stroke:#000000;stroke-linecap:square;stroke-width:1.5;"/>
   </g>
   <g id="line2d_160">
    <path clip-path="url(#p9298b52776)" d="M 174.96 505.50912 
L 442.8 457.60896 
" style="fill:none;stroke:#000000;stroke-linecap:square;stroke-width:1.5;"/>
   </g>
   <g id="line2d_161">
    <path clip-path="url(#p9298b52776)" d="M 174.96 516.1536 
L 442.8 415.03104 
" style="fill:none;stroke:#000000;stroke-linecap:square;stroke-width:1.5;"/>
   </g>
   <g id="line2d_162">
    <path clip-path="url(#p9298b52776)" d="M 174.96 516.1536 
L 442.8 425.67552 
" style="fill:none;stroke:#000000;stroke-linecap:square;stroke-width:1.5;"/>
   </g>
   <g id="line2d_163">
    <path clip-path="url(#p9298b52776)" d="M 174.96 516.1536 
L 442.8 436.32 
" style="fill:none;stroke:#000000;stroke-linecap:square;stroke-width:1.5;"/>
   </g>
   <g id="line2d_164">
    <path clip-path="url(#p9298b52776)" d="M 174.96 516.1536 
L 442.8 446.96448 
" style="fill:none;stroke:#000000;stroke-linecap:square;stroke-width:1.5;"/>
   </g>
   <g id="line2d_165">
    <path clip-path="url(#p9298b52776)" d="M 174.96 516.1536 
L 442.8 457.60896 
" style="fill:none;stroke:#000000;stroke-linecap:square;stroke-width:1.5;"/>
   </g>
   <g id="line2d_166">
    <path clip-path="url(#p9298b52776)" d="M 174.96 526.79808 
L 442.8 415.03104 
" style="fill:none;stroke:#000000;stroke-linecap:square;stroke-width:1.5;"/>
   </g>
   <g id="line2d_167">
    <path clip-path="url(#p9298b52776)" d="M 174.96 526.79808 
L 442.8 425.67552 
" style="fill:none;stroke:#000000;stroke-linecap:square;stroke-width:1.5;"/>
   </g>
   <g id="line2d_168">
    <path clip-path="url(#p9298b52776)" d="M 174.96 526.79808 
L 442.8 436.32 
" style="fill:none;stroke:#000000;stroke-linecap:square;stroke-width:1.5;"/>
   </g>
   <g id="line2d_169">
    <path clip-path="url(#p9298b52776)" d="M 174.96 526.79808 
L 442.8 446.96448 
" style="fill:none;stroke:#000000;stroke-linecap:square;stroke-width:1.5;"/>
   </g>
   <g id="line2d_170">
    <path clip-path="url(#p9298b52776)" d="M 174.96 526.79808 
L 442.8 457.60896 
" style="fill:none;stroke:#000000;stroke-linecap:square;stroke-width:1.5;"/>
   </g>
   <g id="line2d_171">
    <path clip-path="url(#p9298b52776)" d="M 174.96 537.44256 
L 442.8 415.03104 
" style="fill:none;stroke:#000000;stroke-linecap:square;stroke-width:1.5;"/>
   </g>
   <g id="line2d_172">
    <path clip-path="url(#p9298b52776)" d="M 174.96 537.44256 
L 442.8 425.67552 
" style="fill:none;stroke:#000000;stroke-linecap:square;stroke-width:1.5;"/>
   </g>
   <g id="line2d_173">
    <path clip-path="url(#p9298b52776)" d="M 174.96 537.44256 
L 442.8 436.32 
" style="fill:none;stroke:#000000;stroke-linecap:square;stroke-width:1.5;"/>
   </g>
   <g id="line2d_174">
    <path clip-path="url(#p9298b52776)" d="M 174.96 537.44256 
L 442.8 446.96448 
" style="fill:none;stroke:#000000;stroke-linecap:square;stroke-width:1.5;"/>
   </g>
   <g id="line2d_175">
    <path clip-path="url(#p9298b52776)" d="M 174.96 537.44256 
L 442.8 457.60896 
" style="fill:none;stroke:#000000;stroke-linecap:square;stroke-width:1.5;"/>
   </g>
   <g id="line2d_176">
    <path clip-path="url(#p9298b52776)" d="M 174.96 548.08704 
L 442.8 415.03104 
" style="fill:none;stroke:#000000;stroke-linecap:square;stroke-width:1.5;"/>
   </g>
   <g id="line2d_177">
    <path clip-path="url(#p9298b52776)" d="M 174.96 548.08704 
L 442.8 425.67552 
" style="fill:none;stroke:#000000;stroke-linecap:square;stroke-width:1.5;"/>
   </g>
   <g id="line2d_178">
    <path clip-path="url(#p9298b52776)" d="M 174.96 548.08704 
L 442.8 436.32 
" style="fill:none;stroke:#000000;stroke-linecap:square;stroke-width:1.5;"/>
   </g>
   <g id="line2d_179">
    <path clip-path="url(#p9298b52776)" d="M 174.96 548.08704 
L 442.8 446.96448 
" style="fill:none;stroke:#000000;stroke-linecap:square;stroke-width:1.5;"/>
   </g>
   <g id="line2d_180">
    <path clip-path="url(#p9298b52776)" d="M 174.96 548.08704 
L 442.8 457.60896 
" style="fill:none;stroke:#000000;stroke-linecap:square;stroke-width:1.5;"/>
   </g>
   <g id="line2d_181">
    <path clip-path="url(#p9298b52776)" d="M 174.96 558.73152 
L 442.8 415.03104 
" style="fill:none;stroke:#000000;stroke-linecap:square;stroke-width:1.5;"/>
   </g>
   <g id="line2d_182">
    <path clip-path="url(#p9298b52776)" d="M 174.96 558.73152 
L 442.8 425.67552 
" style="fill:none;stroke:#000000;stroke-linecap:square;stroke-width:1.5;"/>
   </g>
   <g id="line2d_183">
    <path clip-path="url(#p9298b52776)" d="M 174.96 558.73152 
L 442.8 436.32 
" style="fill:none;stroke:#000000;stroke-linecap:square;stroke-width:1.5;"/>
   </g>
   <g id="line2d_184">
    <path clip-path="url(#p9298b52776)" d="M 174.96 558.73152 
L 442.8 446.96448 
" style="fill:none;stroke:#000000;stroke-linecap:square;stroke-width:1.5;"/>
   </g>
   <g id="line2d_185">
    <path clip-path="url(#p9298b52776)" d="M 174.96 558.73152 
L 442.8 457.60896 
" style="fill:none;stroke:#000000;stroke-linecap:square;stroke-width:1.5;"/>
   </g>
   <g id="line2d_186">
    <path clip-path="url(#p9298b52776)" d="M 174.96 569.376 
L 442.8 415.03104 
" style="fill:none;stroke:#000000;stroke-linecap:square;stroke-width:1.5;"/>
   </g>
   <g id="line2d_187">
    <path clip-path="url(#p9298b52776)" d="M 174.96 569.376 
L 442.8 425.67552 
" style="fill:none;stroke:#000000;stroke-linecap:square;stroke-width:1.5;"/>
   </g>
   <g id="line2d_188">
    <path clip-path="url(#p9298b52776)" d="M 174.96 569.376 
L 442.8 436.32 
" style="fill:none;stroke:#000000;stroke-linecap:square;stroke-width:1.5;"/>
   </g>
   <g id="line2d_189">
    <path clip-path="url(#p9298b52776)" d="M 174.96 569.376 
L 442.8 446.96448 
" style="fill:none;stroke:#000000;stroke-linecap:square;stroke-width:1.5;"/>
   </g>
   <g id="line2d_190">
    <path clip-path="url(#p9298b52776)" d="M 174.96 569.376 
L 442.8 457.60896 
" style="fill:none;stroke:#000000;stroke-linecap:square;stroke-width:1.5;"/>
   </g>
   <g id="line2d_191">
    <path clip-path="url(#p9298b52776)" d="M 174.96 580.02048 
L 442.8 415.03104 
" style="fill:none;stroke:#000000;stroke-linecap:square;stroke-width:1.5;"/>
   </g>
   <g id="line2d_192">
    <path clip-path="url(#p9298b52776)" d="M 174.96 580.02048 
L 442.8 425.67552 
" style="fill:none;stroke:#000000;stroke-linecap:square;stroke-width:1.5;"/>
   </g>
   <g id="line2d_193">
    <path clip-path="url(#p9298b52776)" d="M 174.96 580.02048 
L 442.8 436.32 
" style="fill:none;stroke:#000000;stroke-linecap:square;stroke-width:1.5;"/>
   </g>
   <g id="line2d_194">
    <path clip-path="url(#p9298b52776)" d="M 174.96 580.02048 
L 442.8 446.96448 
" style="fill:none;stroke:#000000;stroke-linecap:square;stroke-width:1.5;"/>
   </g>
   <g id="line2d_195">
    <path clip-path="url(#p9298b52776)" d="M 174.96 580.02048 
L 442.8 457.60896 
" style="fill:none;stroke:#000000;stroke-linecap:square;stroke-width:1.5;"/>
   </g>
   <g id="line2d_196">
    <path clip-path="url(#p9298b52776)" d="M 174.96 590.66496 
L 442.8 415.03104 
" style="fill:none;stroke:#000000;stroke-linecap:square;stroke-width:1.5;"/>
   </g>
   <g id="line2d_197">
    <path clip-path="url(#p9298b52776)" d="M 174.96 590.66496 
L 442.8 425.67552 
" style="fill:none;stroke:#000000;stroke-linecap:square;stroke-width:1.5;"/>
   </g>
   <g id="line2d_198">
    <path clip-path="url(#p9298b52776)" d="M 174.96 590.66496 
L 442.8 436.32 
" style="fill:none;stroke:#000000;stroke-linecap:square;stroke-width:1.5;"/>
   </g>
   <g id="line2d_199">
    <path clip-path="url(#p9298b52776)" d="M 174.96 590.66496 
L 442.8 446.96448 
" style="fill:none;stroke:#000000;stroke-linecap:square;stroke-width:1.5;"/>
   </g>
   <g id="line2d_200">
    <path clip-path="url(#p9298b52776)" d="M 174.96 590.66496 
L 442.8 457.60896 
" style="fill:none;stroke:#000000;stroke-linecap:square;stroke-width:1.5;"/>
   </g>
   <g id="line2d_201">
    <path clip-path="url(#p9298b52776)" d="M 174.96 601.30944 
L 442.8 415.03104 
" style="fill:none;stroke:#000000;stroke-linecap:square;stroke-width:1.5;"/>
   </g>
   <g id="line2d_202">
    <path clip-path="url(#p9298b52776)" d="M 174.96 601.30944 
L 442.8 425.67552 
" style="fill:none;stroke:#000000;stroke-linecap:square;stroke-width:1.5;"/>
   </g>
   <g id="line2d_203">
    <path clip-path="url(#p9298b52776)" d="M 174.96 601.30944 
L 442.8 436.32 
" style="fill:none;stroke:#000000;stroke-linecap:square;stroke-width:1.5;"/>
   </g>
   <g id="line2d_204">
    <path clip-path="url(#p9298b52776)" d="M 174.96 601.30944 
L 442.8 446.96448 
" style="fill:none;stroke:#000000;stroke-linecap:square;stroke-width:1.5;"/>
   </g>
   <g id="line2d_205">
    <path clip-path="url(#p9298b52776)" d="M 174.96 601.30944 
L 442.8 457.60896 
" style="fill:none;stroke:#000000;stroke-linecap:square;stroke-width:1.5;"/>
   </g>
   <g id="line2d_206">
    <path clip-path="url(#p9298b52776)" d="M 174.96 611.95392 
L 442.8 415.03104 
" style="fill:none;stroke:#000000;stroke-linecap:square;stroke-width:1.5;"/>
   </g>
   <g id="line2d_207">
    <path clip-path="url(#p9298b52776)" d="M 174.96 611.95392 
L 442.8 425.67552 
" style="fill:none;stroke:#000000;stroke-linecap:square;stroke-width:1.5;"/>
   </g>
   <g id="line2d_208">
    <path clip-path="url(#p9298b52776)" d="M 174.96 611.95392 
L 442.8 436.32 
" style="fill:none;stroke:#000000;stroke-linecap:square;stroke-width:1.5;"/>
   </g>
   <g id="line2d_209">
    <path clip-path="url(#p9298b52776)" d="M 174.96 611.95392 
L 442.8 446.96448 
" style="fill:none;stroke:#000000;stroke-linecap:square;stroke-width:1.5;"/>
   </g>
   <g id="line2d_210">
    <path clip-path="url(#p9298b52776)" d="M 174.96 611.95392 
L 442.8 457.60896 
" style="fill:none;stroke:#000000;stroke-linecap:square;stroke-width:1.5;"/>
   </g>
   <g id="line2d_211">
    <path clip-path="url(#p9298b52776)" d="M 174.96 622.5984 
L 442.8 415.03104 
" style="fill:none;stroke:#000000;stroke-linecap:square;stroke-width:1.5;"/>
   </g>
   <g id="line2d_212">
    <path clip-path="url(#p9298b52776)" d="M 174.96 622.5984 
L 442.8 425.67552 
" style="fill:none;stroke:#000000;stroke-linecap:square;stroke-width:1.5;"/>
   </g>
   <g id="line2d_213">
    <path clip-path="url(#p9298b52776)" d="M 174.96 622.5984 
L 442.8 436.32 
" style="fill:none;stroke:#000000;stroke-linecap:square;stroke-width:1.5;"/>
   </g>
   <g id="line2d_214">
    <path clip-path="url(#p9298b52776)" d="M 174.96 622.5984 
L 442.8 446.96448 
" style="fill:none;stroke:#000000;stroke-linecap:square;stroke-width:1.5;"/>
   </g>
   <g id="line2d_215">
    <path clip-path="url(#p9298b52776)" d="M 174.96 622.5984 
L 442.8 457.60896 
" style="fill:none;stroke:#000000;stroke-linecap:square;stroke-width:1.5;"/>
   </g>
   <g id="line2d_216">
    <path clip-path="url(#p9298b52776)" d="M 174.96 633.24288 
L 442.8 415.03104 
" style="fill:none;stroke:#000000;stroke-linecap:square;stroke-width:1.5;"/>
   </g>
   <g id="line2d_217">
    <path clip-path="url(#p9298b52776)" d="M 174.96 633.24288 
L 442.8 425.67552 
" style="fill:none;stroke:#000000;stroke-linecap:square;stroke-width:1.5;"/>
   </g>
   <g id="line2d_218">
    <path clip-path="url(#p9298b52776)" d="M 174.96 633.24288 
L 442.8 436.32 
" style="fill:none;stroke:#000000;stroke-linecap:square;stroke-width:1.5;"/>
   </g>
   <g id="line2d_219">
    <path clip-path="url(#p9298b52776)" d="M 174.96 633.24288 
L 442.8 446.96448 
" style="fill:none;stroke:#000000;stroke-linecap:square;stroke-width:1.5;"/>
   </g>
   <g id="line2d_220">
    <path clip-path="url(#p9298b52776)" d="M 174.96 633.24288 
L 442.8 457.60896 
" style="fill:none;stroke:#000000;stroke-linecap:square;stroke-width:1.5;"/>
   </g>
   <g id="line2d_221">
    <path clip-path="url(#p9298b52776)" d="M 174.96 643.88736 
L 442.8 415.03104 
" style="fill:none;stroke:#000000;stroke-linecap:square;stroke-width:1.5;"/>
   </g>
   <g id="line2d_222">
    <path clip-path="url(#p9298b52776)" d="M 174.96 643.88736 
L 442.8 425.67552 
" style="fill:none;stroke:#000000;stroke-linecap:square;stroke-width:1.5;"/>
   </g>
   <g id="line2d_223">
    <path clip-path="url(#p9298b52776)" d="M 174.96 643.88736 
L 442.8 436.32 
" style="fill:none;stroke:#000000;stroke-linecap:square;stroke-width:1.5;"/>
   </g>
   <g id="line2d_224">
    <path clip-path="url(#p9298b52776)" d="M 174.96 643.88736 
L 442.8 446.96448 
" style="fill:none;stroke:#000000;stroke-linecap:square;stroke-width:1.5;"/>
   </g>
   <g id="line2d_225">
    <path clip-path="url(#p9298b52776)" d="M 174.96 643.88736 
L 442.8 457.60896 
" style="fill:none;stroke:#000000;stroke-linecap:square;stroke-width:1.5;"/>
   </g>
   <g id="line2d_226">
    <path clip-path="url(#p9298b52776)" d="M 174.96 654.53184 
L 442.8 415.03104 
" style="fill:none;stroke:#000000;stroke-linecap:square;stroke-width:1.5;"/>
   </g>
   <g id="line2d_227">
    <path clip-path="url(#p9298b52776)" d="M 174.96 654.53184 
L 442.8 425.67552 
" style="fill:none;stroke:#000000;stroke-linecap:square;stroke-width:1.5;"/>
   </g>
   <g id="line2d_228">
    <path clip-path="url(#p9298b52776)" d="M 174.96 654.53184 
L 442.8 436.32 
" style="fill:none;stroke:#000000;stroke-linecap:square;stroke-width:1.5;"/>
   </g>
   <g id="line2d_229">
    <path clip-path="url(#p9298b52776)" d="M 174.96 654.53184 
L 442.8 446.96448 
" style="fill:none;stroke:#000000;stroke-linecap:square;stroke-width:1.5;"/>
   </g>
   <g id="line2d_230">
    <path clip-path="url(#p9298b52776)" d="M 174.96 654.53184 
L 442.8 457.60896 
" style="fill:none;stroke:#000000;stroke-linecap:square;stroke-width:1.5;"/>
   </g>
   <g id="line2d_231">
    <path clip-path="url(#p9298b52776)" d="M 174.96 665.17632 
L 442.8 415.03104 
" style="fill:none;stroke:#000000;stroke-linecap:square;stroke-width:1.5;"/>
   </g>
   <g id="line2d_232">
    <path clip-path="url(#p9298b52776)" d="M 174.96 665.17632 
L 442.8 425.67552 
" style="fill:none;stroke:#000000;stroke-linecap:square;stroke-width:1.5;"/>
   </g>
   <g id="line2d_233">
    <path clip-path="url(#p9298b52776)" d="M 174.96 665.17632 
L 442.8 436.32 
" style="fill:none;stroke:#000000;stroke-linecap:square;stroke-width:1.5;"/>
   </g>
   <g id="line2d_234">
    <path clip-path="url(#p9298b52776)" d="M 174.96 665.17632 
L 442.8 446.96448 
" style="fill:none;stroke:#000000;stroke-linecap:square;stroke-width:1.5;"/>
   </g>
   <g id="line2d_235">
    <path clip-path="url(#p9298b52776)" d="M 174.96 665.17632 
L 442.8 457.60896 
" style="fill:none;stroke:#000000;stroke-linecap:square;stroke-width:1.5;"/>
   </g>
   <g id="line2d_236">
    <path clip-path="url(#p9298b52776)" d="M 174.96 675.8208 
L 442.8 415.03104 
" style="fill:none;stroke:#000000;stroke-linecap:square;stroke-width:1.5;"/>
   </g>
   <g id="line2d_237">
    <path clip-path="url(#p9298b52776)" d="M 174.96 675.8208 
L 442.8 425.67552 
" style="fill:none;stroke:#000000;stroke-linecap:square;stroke-width:1.5;"/>
   </g>
   <g id="line2d_238">
    <path clip-path="url(#p9298b52776)" d="M 174.96 675.8208 
L 442.8 436.32 
" style="fill:none;stroke:#000000;stroke-linecap:square;stroke-width:1.5;"/>
   </g>
   <g id="line2d_239">
    <path clip-path="url(#p9298b52776)" d="M 174.96 675.8208 
L 442.8 446.96448 
" style="fill:none;stroke:#000000;stroke-linecap:square;stroke-width:1.5;"/>
   </g>
   <g id="line2d_240">
    <path clip-path="url(#p9298b52776)" d="M 174.96 675.8208 
L 442.8 457.60896 
" style="fill:none;stroke:#000000;stroke-linecap:square;stroke-width:1.5;"/>
   </g>
   <g id="line2d_241">
    <path clip-path="url(#p9298b52776)" d="M 174.96 686.46528 
L 442.8 415.03104 
" style="fill:none;stroke:#000000;stroke-linecap:square;stroke-width:1.5;"/>
   </g>
   <g id="line2d_242">
    <path clip-path="url(#p9298b52776)" d="M 174.96 686.46528 
L 442.8 425.67552 
" style="fill:none;stroke:#000000;stroke-linecap:square;stroke-width:1.5;"/>
   </g>
   <g id="line2d_243">
    <path clip-path="url(#p9298b52776)" d="M 174.96 686.46528 
L 442.8 436.32 
" style="fill:none;stroke:#000000;stroke-linecap:square;stroke-width:1.5;"/>
   </g>
   <g id="line2d_244">
    <path clip-path="url(#p9298b52776)" d="M 174.96 686.46528 
L 442.8 446.96448 
" style="fill:none;stroke:#000000;stroke-linecap:square;stroke-width:1.5;"/>
   </g>
   <g id="line2d_245">
    <path clip-path="url(#p9298b52776)" d="M 174.96 686.46528 
L 442.8 457.60896 
" style="fill:none;stroke:#000000;stroke-linecap:square;stroke-width:1.5;"/>
   </g>
   <g id="line2d_246">
    <path clip-path="url(#p9298b52776)" d="M 174.96 697.10976 
L 442.8 415.03104 
" style="fill:none;stroke:#000000;stroke-linecap:square;stroke-width:1.5;"/>
   </g>
   <g id="line2d_247">
    <path clip-path="url(#p9298b52776)" d="M 174.96 697.10976 
L 442.8 425.67552 
" style="fill:none;stroke:#000000;stroke-linecap:square;stroke-width:1.5;"/>
   </g>
   <g id="line2d_248">
    <path clip-path="url(#p9298b52776)" d="M 174.96 697.10976 
L 442.8 436.32 
" style="fill:none;stroke:#000000;stroke-linecap:square;stroke-width:1.5;"/>
   </g>
   <g id="line2d_249">
    <path clip-path="url(#p9298b52776)" d="M 174.96 697.10976 
L 442.8 446.96448 
" style="fill:none;stroke:#000000;stroke-linecap:square;stroke-width:1.5;"/>
   </g>
   <g id="line2d_250">
    <path clip-path="url(#p9298b52776)" d="M 174.96 697.10976 
L 442.8 457.60896 
" style="fill:none;stroke:#000000;stroke-linecap:square;stroke-width:1.5;"/>
   </g>
   <g id="line2d_251">
    <path clip-path="url(#p9298b52776)" d="M 442.8 415.03104 
L 710.64 436.32 
" style="fill:none;stroke:#000000;stroke-linecap:square;stroke-width:1.5;"/>
   </g>
   <g id="line2d_252">
    <path clip-path="url(#p9298b52776)" d="M 442.8 425.67552 
L 710.64 436.32 
" style="fill:none;stroke:#000000;stroke-linecap:square;stroke-width:1.5;"/>
   </g>
   <g id="line2d_253">
    <path clip-path="url(#p9298b52776)" d="M 442.8 436.32 
L 710.64 436.32 
" style="fill:none;stroke:#000000;stroke-linecap:square;stroke-width:1.5;"/>
   </g>
   <g id="line2d_254">
    <path clip-path="url(#p9298b52776)" d="M 442.8 446.96448 
L 710.64 436.32 
" style="fill:none;stroke:#000000;stroke-linecap:square;stroke-width:1.5;"/>
   </g>
   <g id="line2d_255">
    <path clip-path="url(#p9298b52776)" d="M 442.8 457.60896 
L 710.64 436.32 
" style="fill:none;stroke:#000000;stroke-linecap:square;stroke-width:1.5;"/>
   </g>
   <g id="patch_2">
    <path clip-path="url(#p9298b52776)" d="M 174.96 178.19136 
C 175.67032 178.19136 176.351643 177.910968 176.853915 177.411936 
C 177.356187 176.912904 177.6384 176.235977 177.6384 175.53024 
C 177.6384 174.824503 177.356187 174.147576 176.853915 173.648544 
C 176.351643 173.149512 175.67032 172.86912 174.96 172.86912 
C 174.24968 172.86912 173.568357 173.149512 173.066085 173.648544 
C 172.563813 174.147576 172.2816 174.824503 172.2816 175.53024 
C 172.2816 176.235977 172.563813 176.912904 173.066085 177.411936 
C 173.568357 177.910968 174.24968 178.19136 174.96 178.19136 
z
" style="fill:#ffffff;stroke:#000000;stroke-linejoin:miter;"/>
   </g>
   <g id="patch_3">
    <path clip-path="url(#p9298b52776)" d="M 174.96 188.83584 
C 175.67032 188.83584 176.351643 188.555448 176.853915 188.056416 
C 177.356187 187.557384 177.6384 186.880457 177.6384 186.17472 
C 177.6384 185.468983 177.356187 184.792056 176.853915 184.293024 
C 176.351643 183.793992 175.67032 183.5136 174.96 183.5136 
C 174.24968 183.5136 173.568357 183.793992 173.066085 184.293024 
C 172.563813 184.792056 172.2816 185.468983 172.2816 186.17472 
C 172.2816 186.880457 172.563813 187.557384 173.066085 188.056416 
C 173.568357 188.555448 174.24968 188.83584 174.96 188.83584 
z
" style="fill:#ffffff;stroke:#000000;stroke-linejoin:miter;"/>
   </g>
   <g id="patch_4">
    <path clip-path="url(#p9298b52776)" d="M 174.96 199.48032 
C 175.67032 199.48032 176.351643 199.199928 176.853915 198.700896 
C 177.356187 198.201864 177.6384 197.524937 177.6384 196.8192 
C 177.6384 196.113463 177.356187 195.436536 176.853915 194.937504 
C 176.351643 194.438472 175.67032 194.15808 174.96 194.15808 
C 174.24968 194.15808 173.568357 194.438472 173.066085 194.937504 
C 172.563813 195.436536 172.2816 196.113463 172.2816 196.8192 
C 172.2816 197.524937 172.563813 198.201864 173.066085 198.700896 
C 173.568357 199.199928 174.24968 199.48032 174.96 199.48032 
z
" style="fill:#ffffff;stroke:#000000;stroke-linejoin:miter;"/>
   </g>
   <g id="patch_5">
    <path clip-path="url(#p9298b52776)" d="M 174.96 210.1248 
C 175.67032 210.1248 176.351643 209.844408 176.853915 209.345376 
C 177.356187 208.846344 177.6384 208.169417 177.6384 207.46368 
C 177.6384 206.757943 177.356187 206.081016 176.853915 205.581984 
C 176.351643 205.082952 175.67032 204.80256 174.96 204.80256 
C 174.24968 204.80256 173.568357 205.082952 173.066085 205.581984 
C 172.563813 206.081016 172.2816 206.757943 172.2816 207.46368 
C 172.2816 208.169417 172.563813 208.846344 173.066085 209.345376 
C 173.568357 209.844408 174.24968 210.1248 174.96 210.1248 
z
" style="fill:#ffffff;stroke:#000000;stroke-linejoin:miter;"/>
   </g>
   <g id="patch_6">
    <path clip-path="url(#p9298b52776)" d="M 174.96 220.76928 
C 175.67032 220.76928 176.351643 220.488888 176.853915 219.989856 
C 177.356187 219.490824 177.6384 218.813897 177.6384 218.10816 
C 177.6384 217.402423 177.356187 216.725496 176.853915 216.226464 
C 176.351643 215.727432 175.67032 215.44704 174.96 215.44704 
C 174.24968 215.44704 173.568357 215.727432 173.066085 216.226464 
C 172.563813 216.725496 172.2816 217.402423 172.2816 218.10816 
C 172.2816 218.813897 172.563813 219.490824 173.066085 219.989856 
C 173.568357 220.488888 174.24968 220.76928 174.96 220.76928 
z
" style="fill:#ffffff;stroke:#000000;stroke-linejoin:miter;"/>
   </g>
   <g id="patch_7">
    <path clip-path="url(#p9298b52776)" d="M 174.96 231.41376 
C 175.67032 231.41376 176.351643 231.133368 176.853915 230.634336 
C 177.356187 230.135304 177.6384 229.458377 177.6384 228.75264 
C 177.6384 228.046903 177.356187 227.369976 176.853915 226.870944 
C 176.351643 226.371912 175.67032 226.09152 174.96 226.09152 
C 174.24968 226.09152 173.568357 226.371912 173.066085 226.870944 
C 172.563813 227.369976 172.2816 228.046903 172.2816 228.75264 
C 172.2816 229.458377 172.563813 230.135304 173.066085 230.634336 
C 173.568357 231.133368 174.24968 231.41376 174.96 231.41376 
z
" style="fill:#ffffff;stroke:#000000;stroke-linejoin:miter;"/>
   </g>
   <g id="patch_8">
    <path clip-path="url(#p9298b52776)" d="M 174.96 242.05824 
C 175.67032 242.05824 176.351643 241.777848 176.853915 241.278816 
C 177.356187 240.779784 177.6384 240.102857 177.6384 239.39712 
C 177.6384 238.691383 177.356187 238.014456 176.853915 237.515424 
C 176.351643 237.016392 175.67032 236.736 174.96 236.736 
C 174.24968 236.736 173.568357 237.016392 173.066085 237.515424 
C 172.563813 238.014456 172.2816 238.691383 172.2816 239.39712 
C 172.2816 240.102857 172.563813 240.779784 173.066085 241.278816 
C 173.568357 241.777848 174.24968 242.05824 174.96 242.05824 
z
" style="fill:#ffffff;stroke:#000000;stroke-linejoin:miter;"/>
   </g>
   <g id="patch_9">
    <path clip-path="url(#p9298b52776)" d="M 174.96 252.70272 
C 175.67032 252.70272 176.351643 252.422328 176.853915 251.923296 
C 177.356187 251.424264 177.6384 250.747337 177.6384 250.0416 
C 177.6384 249.335863 177.356187 248.658936 176.853915 248.159904 
C 176.351643 247.660872 175.67032 247.38048 174.96 247.38048 
C 174.24968 247.38048 173.568357 247.660872 173.066085 248.159904 
C 172.563813 248.658936 172.2816 249.335863 172.2816 250.0416 
C 172.2816 250.747337 172.563813 251.424264 173.066085 251.923296 
C 173.568357 252.422328 174.24968 252.70272 174.96 252.70272 
z
" style="fill:#ffffff;stroke:#000000;stroke-linejoin:miter;"/>
   </g>
   <g id="patch_10">
    <path clip-path="url(#p9298b52776)" d="M 174.96 263.3472 
C 175.67032 263.3472 176.351643 263.066808 176.853915 262.567776 
C 177.356187 262.068744 177.6384 261.391817 177.6384 260.68608 
C 177.6384 259.980343 177.356187 259.303416 176.853915 258.804384 
C 176.351643 258.305352 175.67032 258.02496 174.96 258.02496 
C 174.24968 258.02496 173.568357 258.305352 173.066085 258.804384 
C 172.563813 259.303416 172.2816 259.980343 172.2816 260.68608 
C 172.2816 261.391817 172.563813 262.068744 173.066085 262.567776 
C 173.568357 263.066808 174.24968 263.3472 174.96 263.3472 
z
" style="fill:#ffffff;stroke:#000000;stroke-linejoin:miter;"/>
   </g>
   <g id="patch_11">
    <path clip-path="url(#p9298b52776)" d="M 174.96 273.99168 
C 175.67032 273.99168 176.351643 273.711288 176.853915 273.212256 
C 177.356187 272.713224 177.6384 272.036297 177.6384 271.33056 
C 177.6384 270.624823 177.356187 269.947896 176.853915 269.448864 
C 176.351643 268.949832 175.67032 268.66944 174.96 268.66944 
C 174.24968 268.66944 173.568357 268.949832 173.066085 269.448864 
C 172.563813 269.947896 172.2816 270.624823 172.2816 271.33056 
C 172.2816 272.036297 172.563813 272.713224 173.066085 273.212256 
C 173.568357 273.711288 174.24968 273.99168 174.96 273.99168 
z
" style="fill:#ffffff;stroke:#000000;stroke-linejoin:miter;"/>
   </g>
   <g id="patch_12">
    <path clip-path="url(#p9298b52776)" d="M 174.96 284.63616 
C 175.67032 284.63616 176.351643 284.355768 176.853915 283.856736 
C 177.356187 283.357704 177.6384 282.680777 177.6384 281.97504 
C 177.6384 281.269303 177.356187 280.592376 176.853915 280.093344 
C 176.351643 279.594312 175.67032 279.31392 174.96 279.31392 
C 174.24968 279.31392 173.568357 279.594312 173.066085 280.093344 
C 172.563813 280.592376 172.2816 281.269303 172.2816 281.97504 
C 172.2816 282.680777 172.563813 283.357704 173.066085 283.856736 
C 173.568357 284.355768 174.24968 284.63616 174.96 284.63616 
z
" style="fill:#ffffff;stroke:#000000;stroke-linejoin:miter;"/>
   </g>
   <g id="patch_13">
    <path clip-path="url(#p9298b52776)" d="M 174.96 295.28064 
C 175.67032 295.28064 176.351643 295.000248 176.853915 294.501216 
C 177.356187 294.002184 177.6384 293.325257 177.6384 292.61952 
C 177.6384 291.913783 177.356187 291.236856 176.853915 290.737824 
C 176.351643 290.238792 175.67032 289.9584 174.96 289.9584 
C 174.24968 289.9584 173.568357 290.238792 173.066085 290.737824 
C 172.563813 291.236856 172.2816 291.913783 172.2816 292.61952 
C 172.2816 293.325257 172.563813 294.002184 173.066085 294.501216 
C 173.568357 295.000248 174.24968 295.28064 174.96 295.28064 
z
" style="fill:#ffffff;stroke:#000000;stroke-linejoin:miter;"/>
   </g>
   <g id="patch_14">
    <path clip-path="url(#p9298b52776)" d="M 174.96 305.92512 
C 175.67032 305.92512 176.351643 305.644728 176.853915 305.145696 
C 177.356187 304.646664 177.6384 303.969737 177.6384 303.264 
C 177.6384 302.558263 177.356187 301.881336 176.853915 301.382304 
C 176.351643 300.883272 175.67032 300.60288 174.96 300.60288 
C 174.24968 300.60288 173.568357 300.883272 173.066085 301.382304 
C 172.563813 301.881336 172.2816 302.558263 172.2816 303.264 
C 172.2816 303.969737 172.563813 304.646664 173.066085 305.145696 
C 173.568357 305.644728 174.24968 305.92512 174.96 305.92512 
z
" style="fill:#ffffff;stroke:#000000;stroke-linejoin:miter;"/>
   </g>
   <g id="patch_15">
    <path clip-path="url(#p9298b52776)" d="M 174.96 316.5696 
C 175.67032 316.5696 176.351643 316.289208 176.853915 315.790176 
C 177.356187 315.291144 177.6384 314.614217 177.6384 313.90848 
C 177.6384 313.202743 177.356187 312.525816 176.853915 312.026784 
C 176.351643 311.527752 175.67032 311.24736 174.96 311.24736 
C 174.24968 311.24736 173.568357 311.527752 173.066085 312.026784 
C 172.563813 312.525816 172.2816 313.202743 172.2816 313.90848 
C 172.2816 314.614217 172.563813 315.291144 173.066085 315.790176 
C 173.568357 316.289208 174.24968 316.5696 174.96 316.5696 
z
" style="fill:#ffffff;stroke:#000000;stroke-linejoin:miter;"/>
   </g>
   <g id="patch_16">
    <path clip-path="url(#p9298b52776)" d="M 174.96 327.21408 
C 175.67032 327.21408 176.351643 326.933688 176.853915 326.434656 
C 177.356187 325.935624 177.6384 325.258697 177.6384 324.55296 
C 177.6384 323.847223 177.356187 323.170296 176.853915 322.671264 
C 176.351643 322.172232 175.67032 321.89184 174.96 321.89184 
C 174.24968 321.89184 173.568357 322.172232 173.066085 322.671264 
C 172.563813 323.170296 172.2816 323.847223 172.2816 324.55296 
C 172.2816 325.258697 172.563813 325.935624 173.066085 326.434656 
C 173.568357 326.933688 174.24968 327.21408 174.96 327.21408 
z
" style="fill:#ffffff;stroke:#000000;stroke-linejoin:miter;"/>
   </g>
   <g id="patch_17">
    <path clip-path="url(#p9298b52776)" d="M 174.96 337.85856 
C 175.67032 337.85856 176.351643 337.578168 176.853915 337.079136 
C 177.356187 336.580104 177.6384 335.903177 177.6384 335.19744 
C 177.6384 334.491703 177.356187 333.814776 176.853915 333.315744 
C 176.351643 332.816712 175.67032 332.53632 174.96 332.53632 
C 174.24968 332.53632 173.568357 332.816712 173.066085 333.315744 
C 172.563813 333.814776 172.2816 334.491703 172.2816 335.19744 
C 172.2816 335.903177 172.563813 336.580104 173.066085 337.079136 
C 173.568357 337.578168 174.24968 337.85856 174.96 337.85856 
z
" style="fill:#ffffff;stroke:#000000;stroke-linejoin:miter;"/>
   </g>
   <g id="patch_18">
    <path clip-path="url(#p9298b52776)" d="M 174.96 348.50304 
C 175.67032 348.50304 176.351643 348.222648 176.853915 347.723616 
C 177.356187 347.224584 177.6384 346.547657 177.6384 345.84192 
C 177.6384 345.136183 177.356187 344.459256 176.853915 343.960224 
C 176.351643 343.461192 175.67032 343.1808 174.96 343.1808 
C 174.24968 343.1808 173.568357 343.461192 173.066085 343.960224 
C 172.563813 344.459256 172.2816 345.136183 172.2816 345.84192 
C 172.2816 346.547657 172.563813 347.224584 173.066085 347.723616 
C 173.568357 348.222648 174.24968 348.50304 174.96 348.50304 
z
" style="fill:#ffffff;stroke:#000000;stroke-linejoin:miter;"/>
   </g>
   <g id="patch_19">
    <path clip-path="url(#p9298b52776)" d="M 174.96 359.14752 
C 175.67032 359.14752 176.351643 358.867128 176.853915 358.368096 
C 177.356187 357.869064 177.6384 357.192137 177.6384 356.4864 
C 177.6384 355.780663 177.356187 355.103736 176.853915 354.604704 
C 176.351643 354.105672 175.67032 353.82528 174.96 353.82528 
C 174.24968 353.82528 173.568357 354.105672 173.066085 354.604704 
C 172.563813 355.103736 172.2816 355.780663 172.2816 356.4864 
C 172.2816 357.192137 172.563813 357.869064 173.066085 358.368096 
C 173.568357 358.867128 174.24968 359.14752 174.96 359.14752 
z
" style="fill:#ffffff;stroke:#000000;stroke-linejoin:miter;"/>
   </g>
   <g id="patch_20">
    <path clip-path="url(#p9298b52776)" d="M 174.96 369.792 
C 175.67032 369.792 176.351643 369.511608 176.853915 369.012576 
C 177.356187 368.513544 177.6384 367.836617 177.6384 367.13088 
C 177.6384 366.425143 177.356187 365.748216 176.853915 365.249184 
C 176.351643 364.750152 175.67032 364.46976 174.96 364.46976 
C 174.24968 364.46976 173.568357 364.750152 173.066085 365.249184 
C 172.563813 365.748216 172.2816 366.425143 172.2816 367.13088 
C 172.2816 367.836617 172.563813 368.513544 173.066085 369.012576 
C 173.568357 369.511608 174.24968 369.792 174.96 369.792 
z
" style="fill:#ffffff;stroke:#000000;stroke-linejoin:miter;"/>
   </g>
   <g id="patch_21">
    <path clip-path="url(#p9298b52776)" d="M 174.96 380.43648 
C 175.67032 380.43648 176.351643 380.156088 176.853915 379.657056 
C 177.356187 379.158024 177.6384 378.481097 177.6384 377.77536 
C 177.6384 377.069623 177.356187 376.392696 176.853915 375.893664 
C 176.351643 375.394632 175.67032 375.11424 174.96 375.11424 
C 174.24968 375.11424 173.568357 375.394632 173.066085 375.893664 
C 172.563813 376.392696 172.2816 377.069623 172.2816 377.77536 
C 172.2816 378.481097 172.563813 379.158024 173.066085 379.657056 
C 173.568357 380.156088 174.24968 380.43648 174.96 380.43648 
z
" style="fill:#ffffff;stroke:#000000;stroke-linejoin:miter;"/>
   </g>
   <g id="patch_22">
    <path clip-path="url(#p9298b52776)" d="M 174.96 391.08096 
C 175.67032 391.08096 176.351643 390.800568 176.853915 390.301536 
C 177.356187 389.802504 177.6384 389.125577 177.6384 388.41984 
C 177.6384 387.714103 177.356187 387.037176 176.853915 386.538144 
C 176.351643 386.039112 175.67032 385.75872 174.96 385.75872 
C 174.24968 385.75872 173.568357 386.039112 173.066085 386.538144 
C 172.563813 387.037176 172.2816 387.714103 172.2816 388.41984 
C 172.2816 389.125577 172.563813 389.802504 173.066085 390.301536 
C 173.568357 390.800568 174.24968 391.08096 174.96 391.08096 
z
" style="fill:#ffffff;stroke:#000000;stroke-linejoin:miter;"/>
   </g>
   <g id="patch_23">
    <path clip-path="url(#p9298b52776)" d="M 174.96 401.72544 
C 175.67032 401.72544 176.351643 401.445048 176.853915 400.946016 
C 177.356187 400.446984 177.6384 399.770057 177.6384 399.06432 
C 177.6384 398.358583 177.356187 397.681656 176.853915 397.182624 
C 176.351643 396.683592 175.67032 396.4032 174.96 396.4032 
C 174.24968 396.4032 173.568357 396.683592 173.066085 397.182624 
C 172.563813 397.681656 172.2816 398.358583 172.2816 399.06432 
C 172.2816 399.770057 172.563813 400.446984 173.066085 400.946016 
C 173.568357 401.445048 174.24968 401.72544 174.96 401.72544 
z
" style="fill:#ffffff;stroke:#000000;stroke-linejoin:miter;"/>
   </g>
   <g id="patch_24">
    <path clip-path="url(#p9298b52776)" d="M 174.96 412.36992 
C 175.67032 412.36992 176.351643 412.089528 176.853915 411.590496 
C 177.356187 411.091464 177.6384 410.414537 177.6384 409.7088 
C 177.6384 409.003063 177.356187 408.326136 176.853915 407.827104 
C 176.351643 407.328072 175.67032 407.04768 174.96 407.04768 
C 174.24968 407.04768 173.568357 407.328072 173.066085 407.827104 
C 172.563813 408.326136 172.2816 409.003063 172.2816 409.7088 
C 172.2816 410.414537 172.563813 411.091464 173.066085 411.590496 
C 173.568357 412.089528 174.24968 412.36992 174.96 412.36992 
z
" style="fill:#ffffff;stroke:#000000;stroke-linejoin:miter;"/>
   </g>
   <g id="patch_25">
    <path clip-path="url(#p9298b52776)" d="M 174.96 423.0144 
C 175.67032 423.0144 176.351643 422.734008 176.853915 422.234976 
C 177.356187 421.735944 177.6384 421.059017 177.6384 420.35328 
C 177.6384 419.647543 177.356187 418.970616 176.853915 418.471584 
C 176.351643 417.972552 175.67032 417.69216 174.96 417.69216 
C 174.24968 417.69216 173.568357 417.972552 173.066085 418.471584 
C 172.563813 418.970616 172.2816 419.647543 172.2816 420.35328 
C 172.2816 421.059017 172.563813 421.735944 173.066085 422.234976 
C 173.568357 422.734008 174.24968 423.0144 174.96 423.0144 
z
" style="fill:#ffffff;stroke:#000000;stroke-linejoin:miter;"/>
   </g>
   <g id="patch_26">
    <path clip-path="url(#p9298b52776)" d="M 174.96 433.65888 
C 175.67032 433.65888 176.351643 433.378488 176.853915 432.879456 
C 177.356187 432.380424 177.6384 431.703497 177.6384 430.99776 
C 177.6384 430.292023 177.356187 429.615096 176.853915 429.116064 
C 176.351643 428.617032 175.67032 428.33664 174.96 428.33664 
C 174.24968 428.33664 173.568357 428.617032 173.066085 429.116064 
C 172.563813 429.615096 172.2816 430.292023 172.2816 430.99776 
C 172.2816 431.703497 172.563813 432.380424 173.066085 432.879456 
C 173.568357 433.378488 174.24968 433.65888 174.96 433.65888 
z
" style="fill:#ffffff;stroke:#000000;stroke-linejoin:miter;"/>
   </g>
   <g id="patch_27">
    <path clip-path="url(#p9298b52776)" d="M 174.96 444.30336 
C 175.67032 444.30336 176.351643 444.022968 176.853915 443.523936 
C 177.356187 443.024904 177.6384 442.347977 177.6384 441.64224 
C 177.6384 440.936503 177.356187 440.259576 176.853915 439.760544 
C 176.351643 439.261512 175.67032 438.98112 174.96 438.98112 
C 174.24968 438.98112 173.568357 439.261512 173.066085 439.760544 
C 172.563813 440.259576 172.2816 440.936503 172.2816 441.64224 
C 172.2816 442.347977 172.563813 443.024904 173.066085 443.523936 
C 173.568357 444.022968 174.24968 444.30336 174.96 444.30336 
z
" style="fill:#ffffff;stroke:#000000;stroke-linejoin:miter;"/>
   </g>
   <g id="patch_28">
    <path clip-path="url(#p9298b52776)" d="M 174.96 454.94784 
C 175.67032 454.94784 176.351643 454.667448 176.853915 454.168416 
C 177.356187 453.669384 177.6384 452.992457 177.6384 452.28672 
C 177.6384 451.580983 177.356187 450.904056 176.853915 450.405024 
C 176.351643 449.905992 175.67032 449.6256 174.96 449.6256 
C 174.24968 449.6256 173.568357 449.905992 173.066085 450.405024 
C 172.563813 450.904056 172.2816 451.580983 172.2816 452.28672 
C 172.2816 452.992457 172.563813 453.669384 173.066085 454.168416 
C 173.568357 454.667448 174.24968 454.94784 174.96 454.94784 
z
" style="fill:#ffffff;stroke:#000000;stroke-linejoin:miter;"/>
   </g>
   <g id="patch_29">
    <path clip-path="url(#p9298b52776)" d="M 174.96 465.59232 
C 175.67032 465.59232 176.351643 465.311928 176.853915 464.812896 
C 177.356187 464.313864 177.6384 463.636937 177.6384 462.9312 
C 177.6384 462.225463 177.356187 461.548536 176.853915 461.049504 
C 176.351643 460.550472 175.67032 460.27008 174.96 460.27008 
C 174.24968 460.27008 173.568357 460.550472 173.066085 461.049504 
C 172.563813 461.548536 172.2816 462.225463 172.2816 462.9312 
C 172.2816 463.636937 172.563813 464.313864 173.066085 464.812896 
C 173.568357 465.311928 174.24968 465.59232 174.96 465.59232 
z
" style="fill:#ffffff;stroke:#000000;stroke-linejoin:miter;"/>
   </g>
   <g id="patch_30">
    <path clip-path="url(#p9298b52776)" d="M 174.96 476.2368 
C 175.67032 476.2368 176.351643 475.956408 176.853915 475.457376 
C 177.356187 474.958344 177.6384 474.281417 177.6384 473.57568 
C 177.6384 472.869943 177.356187 472.193016 176.853915 471.693984 
C 176.351643 471.194952 175.67032 470.91456 174.96 470.91456 
C 174.24968 470.91456 173.568357 471.194952 173.066085 471.693984 
C 172.563813 472.193016 172.2816 472.869943 172.2816 473.57568 
C 172.2816 474.281417 172.563813 474.958344 173.066085 475.457376 
C 173.568357 475.956408 174.24968 476.2368 174.96 476.2368 
z
" style="fill:#ffffff;stroke:#000000;stroke-linejoin:miter;"/>
   </g>
   <g id="patch_31">
    <path clip-path="url(#p9298b52776)" d="M 174.96 486.88128 
C 175.67032 486.88128 176.351643 486.600888 176.853915 486.101856 
C 177.356187 485.602824 177.6384 484.925897 177.6384 484.22016 
C 177.6384 483.514423 177.356187 482.837496 176.853915 482.338464 
C 176.351643 481.839432 175.67032 481.55904 174.96 481.55904 
C 174.24968 481.55904 173.568357 481.839432 173.066085 482.338464 
C 172.563813 482.837496 172.2816 483.514423 172.2816 484.22016 
C 172.2816 484.925897 172.563813 485.602824 173.066085 486.101856 
C 173.568357 486.600888 174.24968 486.88128 174.96 486.88128 
z
" style="fill:#ffffff;stroke:#000000;stroke-linejoin:miter;"/>
   </g>
   <g id="patch_32">
    <path clip-path="url(#p9298b52776)" d="M 174.96 497.52576 
C 175.67032 497.52576 176.351643 497.245368 176.853915 496.746336 
C 177.356187 496.247304 177.6384 495.570377 177.6384 494.86464 
C 177.6384 494.158903 177.356187 493.481976 176.853915 492.982944 
C 176.351643 492.483912 175.67032 492.20352 174.96 492.20352 
C 174.24968 492.20352 173.568357 492.483912 173.066085 492.982944 
C 172.563813 493.481976 172.2816 494.158903 172.2816 494.86464 
C 172.2816 495.570377 172.563813 496.247304 173.066085 496.746336 
C 173.568357 497.245368 174.24968 497.52576 174.96 497.52576 
z
" style="fill:#ffffff;stroke:#000000;stroke-linejoin:miter;"/>
   </g>
   <g id="patch_33">
    <path clip-path="url(#p9298b52776)" d="M 174.96 508.17024 
C 175.67032 508.17024 176.351643 507.889848 176.853915 507.390816 
C 177.356187 506.891784 177.6384 506.214857 177.6384 505.50912 
C 177.6384 504.803383 177.356187 504.126456 176.853915 503.627424 
C 176.351643 503.128392 175.67032 502.848 174.96 502.848 
C 174.24968 502.848 173.568357 503.128392 173.066085 503.627424 
C 172.563813 504.126456 172.2816 504.803383 172.2816 505.50912 
C 172.2816 506.214857 172.563813 506.891784 173.066085 507.390816 
C 173.568357 507.889848 174.24968 508.17024 174.96 508.17024 
z
" style="fill:#ffffff;stroke:#000000;stroke-linejoin:miter;"/>
   </g>
   <g id="patch_34">
    <path clip-path="url(#p9298b52776)" d="M 174.96 518.81472 
C 175.67032 518.81472 176.351643 518.534328 176.853915 518.035296 
C 177.356187 517.536264 177.6384 516.859337 177.6384 516.1536 
C 177.6384 515.447863 177.356187 514.770936 176.853915 514.271904 
C 176.351643 513.772872 175.67032 513.49248 174.96 513.49248 
C 174.24968 513.49248 173.568357 513.772872 173.066085 514.271904 
C 172.563813 514.770936 172.2816 515.447863 172.2816 516.1536 
C 172.2816 516.859337 172.563813 517.536264 173.066085 518.035296 
C 173.568357 518.534328 174.24968 518.81472 174.96 518.81472 
z
" style="fill:#ffffff;stroke:#000000;stroke-linejoin:miter;"/>
   </g>
   <g id="patch_35">
    <path clip-path="url(#p9298b52776)" d="M 174.96 529.4592 
C 175.67032 529.4592 176.351643 529.178808 176.853915 528.679776 
C 177.356187 528.180744 177.6384 527.503817 177.6384 526.79808 
C 177.6384 526.092343 177.356187 525.415416 176.853915 524.916384 
C 176.351643 524.417352 175.67032 524.13696 174.96 524.13696 
C 174.24968 524.13696 173.568357 524.417352 173.066085 524.916384 
C 172.563813 525.415416 172.2816 526.092343 172.2816 526.79808 
C 172.2816 527.503817 172.563813 528.180744 173.066085 528.679776 
C 173.568357 529.178808 174.24968 529.4592 174.96 529.4592 
z
" style="fill:#ffffff;stroke:#000000;stroke-linejoin:miter;"/>
   </g>
   <g id="patch_36">
    <path clip-path="url(#p9298b52776)" d="M 174.96 540.10368 
C 175.67032 540.10368 176.351643 539.823288 176.853915 539.324256 
C 177.356187 538.825224 177.6384 538.148297 177.6384 537.44256 
C 177.6384 536.736823 177.356187 536.059896 176.853915 535.560864 
C 176.351643 535.061832 175.67032 534.78144 174.96 534.78144 
C 174.24968 534.78144 173.568357 535.061832 173.066085 535.560864 
C 172.563813 536.059896 172.2816 536.736823 172.2816 537.44256 
C 172.2816 538.148297 172.563813 538.825224 173.066085 539.324256 
C 173.568357 539.823288 174.24968 540.10368 174.96 540.10368 
z
" style="fill:#ffffff;stroke:#000000;stroke-linejoin:miter;"/>
   </g>
   <g id="patch_37">
    <path clip-path="url(#p9298b52776)" d="M 174.96 550.74816 
C 175.67032 550.74816 176.351643 550.467768 176.853915 549.968736 
C 177.356187 549.469704 177.6384 548.792777 177.6384 548.08704 
C 177.6384 547.381303 177.356187 546.704376 176.853915 546.205344 
C 176.351643 545.706312 175.67032 545.42592 174.96 545.42592 
C 174.24968 545.42592 173.568357 545.706312 173.066085 546.205344 
C 172.563813 546.704376 172.2816 547.381303 172.2816 548.08704 
C 172.2816 548.792777 172.563813 549.469704 173.066085 549.968736 
C 173.568357 550.467768 174.24968 550.74816 174.96 550.74816 
z
" style="fill:#ffffff;stroke:#000000;stroke-linejoin:miter;"/>
   </g>
   <g id="patch_38">
    <path clip-path="url(#p9298b52776)" d="M 174.96 561.39264 
C 175.67032 561.39264 176.351643 561.112248 176.853915 560.613216 
C 177.356187 560.114184 177.6384 559.437257 177.6384 558.73152 
C 177.6384 558.025783 177.356187 557.348856 176.853915 556.849824 
C 176.351643 556.350792 175.67032 556.0704 174.96 556.0704 
C 174.24968 556.0704 173.568357 556.350792 173.066085 556.849824 
C 172.563813 557.348856 172.2816 558.025783 172.2816 558.73152 
C 172.2816 559.437257 172.563813 560.114184 173.066085 560.613216 
C 173.568357 561.112248 174.24968 561.39264 174.96 561.39264 
z
" style="fill:#ffffff;stroke:#000000;stroke-linejoin:miter;"/>
   </g>
   <g id="patch_39">
    <path clip-path="url(#p9298b52776)" d="M 174.96 572.03712 
C 175.67032 572.03712 176.351643 571.756728 176.853915 571.257696 
C 177.356187 570.758664 177.6384 570.081737 177.6384 569.376 
C 177.6384 568.670263 177.356187 567.993336 176.853915 567.494304 
C 176.351643 566.995272 175.67032 566.71488 174.96 566.71488 
C 174.24968 566.71488 173.568357 566.995272 173.066085 567.494304 
C 172.563813 567.993336 172.2816 568.670263 172.2816 569.376 
C 172.2816 570.081737 172.563813 570.758664 173.066085 571.257696 
C 173.568357 571.756728 174.24968 572.03712 174.96 572.03712 
z
" style="fill:#ffffff;stroke:#000000;stroke-linejoin:miter;"/>
   </g>
   <g id="patch_40">
    <path clip-path="url(#p9298b52776)" d="M 174.96 582.6816 
C 175.67032 582.6816 176.351643 582.401208 176.853915 581.902176 
C 177.356187 581.403144 177.6384 580.726217 177.6384 580.02048 
C 177.6384 579.314743 177.356187 578.637816 176.853915 578.138784 
C 176.351643 577.639752 175.67032 577.35936 174.96 577.35936 
C 174.24968 577.35936 173.568357 577.639752 173.066085 578.138784 
C 172.563813 578.637816 172.2816 579.314743 172.2816 580.02048 
C 172.2816 580.726217 172.563813 581.403144 173.066085 581.902176 
C 173.568357 582.401208 174.24968 582.6816 174.96 582.6816 
z
" style="fill:#ffffff;stroke:#000000;stroke-linejoin:miter;"/>
   </g>
   <g id="patch_41">
    <path clip-path="url(#p9298b52776)" d="M 174.96 593.32608 
C 175.67032 593.32608 176.351643 593.045688 176.853915 592.546656 
C 177.356187 592.047624 177.6384 591.370697 177.6384 590.66496 
C 177.6384 589.959223 177.356187 589.282296 176.853915 588.783264 
C 176.351643 588.284232 175.67032 588.00384 174.96 588.00384 
C 174.24968 588.00384 173.568357 588.284232 173.066085 588.783264 
C 172.563813 589.282296 172.2816 589.959223 172.2816 590.66496 
C 172.2816 591.370697 172.563813 592.047624 173.066085 592.546656 
C 173.568357 593.045688 174.24968 593.32608 174.96 593.32608 
z
" style="fill:#ffffff;stroke:#000000;stroke-linejoin:miter;"/>
   </g>
   <g id="patch_42">
    <path clip-path="url(#p9298b52776)" d="M 174.96 603.97056 
C 175.67032 603.97056 176.351643 603.690168 176.853915 603.191136 
C 177.356187 602.692104 177.6384 602.015177 177.6384 601.30944 
C 177.6384 600.603703 177.356187 599.926776 176.853915 599.427744 
C 176.351643 598.928712 175.67032 598.64832 174.96 598.64832 
C 174.24968 598.64832 173.568357 598.928712 173.066085 599.427744 
C 172.563813 599.926776 172.2816 600.603703 172.2816 601.30944 
C 172.2816 602.015177 172.563813 602.692104 173.066085 603.191136 
C 173.568357 603.690168 174.24968 603.97056 174.96 603.97056 
z
" style="fill:#ffffff;stroke:#000000;stroke-linejoin:miter;"/>
   </g>
   <g id="patch_43">
    <path clip-path="url(#p9298b52776)" d="M 174.96 614.61504 
C 175.67032 614.61504 176.351643 614.334648 176.853915 613.835616 
C 177.356187 613.336584 177.6384 612.659657 177.6384 611.95392 
C 177.6384 611.248183 177.356187 610.571256 176.853915 610.072224 
C 176.351643 609.573192 175.67032 609.2928 174.96 609.2928 
C 174.24968 609.2928 173.568357 609.573192 173.066085 610.072224 
C 172.563813 610.571256 172.2816 611.248183 172.2816 611.95392 
C 172.2816 612.659657 172.563813 613.336584 173.066085 613.835616 
C 173.568357 614.334648 174.24968 614.61504 174.96 614.61504 
z
" style="fill:#ffffff;stroke:#000000;stroke-linejoin:miter;"/>
   </g>
   <g id="patch_44">
    <path clip-path="url(#p9298b52776)" d="M 174.96 625.25952 
C 175.67032 625.25952 176.351643 624.979128 176.853915 624.480096 
C 177.356187 623.981064 177.6384 623.304137 177.6384 622.5984 
C 177.6384 621.892663 177.356187 621.215736 176.853915 620.716704 
C 176.351643 620.217672 175.67032 619.93728 174.96 619.93728 
C 174.24968 619.93728 173.568357 620.217672 173.066085 620.716704 
C 172.563813 621.215736 172.2816 621.892663 172.2816 622.5984 
C 172.2816 623.304137 172.563813 623.981064 173.066085 624.480096 
C 173.568357 624.979128 174.24968 625.25952 174.96 625.25952 
z
" style="fill:#ffffff;stroke:#000000;stroke-linejoin:miter;"/>
   </g>
   <g id="patch_45">
    <path clip-path="url(#p9298b52776)" d="M 174.96 635.904 
C 175.67032 635.904 176.351643 635.623608 176.853915 635.124576 
C 177.356187 634.625544 177.6384 633.948617 177.6384 633.24288 
C 177.6384 632.537143 177.356187 631.860216 176.853915 631.361184 
C 176.351643 630.862152 175.67032 630.58176 174.96 630.58176 
C 174.24968 630.58176 173.568357 630.862152 173.066085 631.361184 
C 172.563813 631.860216 172.2816 632.537143 172.2816 633.24288 
C 172.2816 633.948617 172.563813 634.625544 173.066085 635.124576 
C 173.568357 635.623608 174.24968 635.904 174.96 635.904 
z
" style="fill:#ffffff;stroke:#000000;stroke-linejoin:miter;"/>
   </g>
   <g id="patch_46">
    <path clip-path="url(#p9298b52776)" d="M 174.96 646.54848 
C 175.67032 646.54848 176.351643 646.268088 176.853915 645.769056 
C 177.356187 645.270024 177.6384 644.593097 177.6384 643.88736 
C 177.6384 643.181623 177.356187 642.504696 176.853915 642.005664 
C 176.351643 641.506632 175.67032 641.22624 174.96 641.22624 
C 174.24968 641.22624 173.568357 641.506632 173.066085 642.005664 
C 172.563813 642.504696 172.2816 643.181623 172.2816 643.88736 
C 172.2816 644.593097 172.563813 645.270024 173.066085 645.769056 
C 173.568357 646.268088 174.24968 646.54848 174.96 646.54848 
z
" style="fill:#ffffff;stroke:#000000;stroke-linejoin:miter;"/>
   </g>
   <g id="patch_47">
    <path clip-path="url(#p9298b52776)" d="M 174.96 657.19296 
C 175.67032 657.19296 176.351643 656.912568 176.853915 656.413536 
C 177.356187 655.914504 177.6384 655.237577 177.6384 654.53184 
C 177.6384 653.826103 177.356187 653.149176 176.853915 652.650144 
C 176.351643 652.151112 175.67032 651.87072 174.96 651.87072 
C 174.24968 651.87072 173.568357 652.151112 173.066085 652.650144 
C 172.563813 653.149176 172.2816 653.826103 172.2816 654.53184 
C 172.2816 655.237577 172.563813 655.914504 173.066085 656.413536 
C 173.568357 656.912568 174.24968 657.19296 174.96 657.19296 
z
" style="fill:#ffffff;stroke:#000000;stroke-linejoin:miter;"/>
   </g>
   <g id="patch_48">
    <path clip-path="url(#p9298b52776)" d="M 174.96 667.83744 
C 175.67032 667.83744 176.351643 667.557048 176.853915 667.058016 
C 177.356187 666.558984 177.6384 665.882057 177.6384 665.17632 
C 177.6384 664.470583 177.356187 663.793656 176.853915 663.294624 
C 176.351643 662.795592 175.67032 662.5152 174.96 662.5152 
C 174.24968 662.5152 173.568357 662.795592 173.066085 663.294624 
C 172.563813 663.793656 172.2816 664.470583 172.2816 665.17632 
C 172.2816 665.882057 172.563813 666.558984 173.066085 667.058016 
C 173.568357 667.557048 174.24968 667.83744 174.96 667.83744 
z
" style="fill:#ffffff;stroke:#000000;stroke-linejoin:miter;"/>
   </g>
   <g id="patch_49">
    <path clip-path="url(#p9298b52776)" d="M 174.96 678.48192 
C 175.67032 678.48192 176.351643 678.201528 176.853915 677.702496 
C 177.356187 677.203464 177.6384 676.526537 177.6384 675.8208 
C 177.6384 675.115063 177.356187 674.438136 176.853915 673.939104 
C 176.351643 673.440072 175.67032 673.15968 174.96 673.15968 
C 174.24968 673.15968 173.568357 673.440072 173.066085 673.939104 
C 172.563813 674.438136 172.2816 675.115063 172.2816 675.8208 
C 172.2816 676.526537 172.563813 677.203464 173.066085 677.702496 
C 173.568357 678.201528 174.24968 678.48192 174.96 678.48192 
z
" style="fill:#ffffff;stroke:#000000;stroke-linejoin:miter;"/>
   </g>
   <g id="patch_50">
    <path clip-path="url(#p9298b52776)" d="M 174.96 689.1264 
C 175.67032 689.1264 176.351643 688.846008 176.853915 688.346976 
C 177.356187 687.847944 177.6384 687.171017 177.6384 686.46528 
C 177.6384 685.759543 177.356187 685.082616 176.853915 684.583584 
C 176.351643 684.084552 175.67032 683.80416 174.96 683.80416 
C 174.24968 683.80416 173.568357 684.084552 173.066085 684.583584 
C 172.563813 685.082616 172.2816 685.759543 172.2816 686.46528 
C 172.2816 687.171017 172.563813 687.847944 173.066085 688.346976 
C 173.568357 688.846008 174.24968 689.1264 174.96 689.1264 
z
" style="fill:#ffffff;stroke:#000000;stroke-linejoin:miter;"/>
   </g>
   <g id="patch_51">
    <path clip-path="url(#p9298b52776)" d="M 174.96 699.77088 
C 175.67032 699.77088 176.351643 699.490488 176.853915 698.991456 
C 177.356187 698.492424 177.6384 697.815497 177.6384 697.10976 
C 177.6384 696.404023 177.356187 695.727096 176.853915 695.228064 
C 176.351643 694.729032 175.67032 694.44864 174.96 694.44864 
C 174.24968 694.44864 173.568357 694.729032 173.066085 695.228064 
C 172.563813 695.727096 172.2816 696.404023 172.2816 697.10976 
C 172.2816 697.815497 172.563813 698.492424 173.066085 698.991456 
C 173.568357 699.490488 174.24968 699.77088 174.96 699.77088 
z
" style="fill:#ffffff;stroke:#000000;stroke-linejoin:miter;"/>
   </g>
   <g id="patch_52">
    <path clip-path="url(#p9298b52776)" d="M 442.8 417.69216 
C 443.51032 417.69216 444.191643 417.411768 444.693915 416.912736 
C 445.196187 416.413704 445.4784 415.736777 445.4784 415.03104 
C 445.4784 414.325303 445.196187 413.648376 444.693915 413.149344 
C 444.191643 412.650312 443.51032 412.36992 442.8 412.36992 
C 442.08968 412.36992 441.408357 412.650312 440.906085 413.149344 
C 440.403813 413.648376 440.1216 414.325303 440.1216 415.03104 
C 440.1216 415.736777 440.403813 416.413704 440.906085 416.912736 
C 441.408357 417.411768 442.08968 417.69216 442.8 417.69216 
z
" style="fill:#ffffff;stroke:#000000;stroke-linejoin:miter;"/>
   </g>
   <g id="patch_53">
    <path clip-path="url(#p9298b52776)" d="M 442.8 428.33664 
C 443.51032 428.33664 444.191643 428.056248 444.693915 427.557216 
C 445.196187 427.058184 445.4784 426.381257 445.4784 425.67552 
C 445.4784 424.969783 445.196187 424.292856 444.693915 423.793824 
C 444.191643 423.294792 443.51032 423.0144 442.8 423.0144 
C 442.08968 423.0144 441.408357 423.294792 440.906085 423.793824 
C 440.403813 424.292856 440.1216 424.969783 440.1216 425.67552 
C 440.1216 426.381257 440.403813 427.058184 440.906085 427.557216 
C 441.408357 428.056248 442.08968 428.33664 442.8 428.33664 
z
" style="fill:#ffffff;stroke:#000000;stroke-linejoin:miter;"/>
   </g>
   <g id="patch_54">
    <path clip-path="url(#p9298b52776)" d="M 442.8 438.98112 
C 443.51032 438.98112 444.191643 438.700728 444.693915 438.201696 
C 445.196187 437.702664 445.4784 437.025737 445.4784 436.32 
C 445.4784 435.614263 445.196187 434.937336 444.693915 434.438304 
C 444.191643 433.939272 443.51032 433.65888 442.8 433.65888 
C 442.08968 433.65888 441.408357 433.939272 440.906085 434.438304 
C 440.403813 434.937336 440.1216 435.614263 440.1216 436.32 
C 440.1216 437.025737 440.403813 437.702664 440.906085 438.201696 
C 441.408357 438.700728 442.08968 438.98112 442.8 438.98112 
z
" style="fill:#ffffff;stroke:#000000;stroke-linejoin:miter;"/>
   </g>
   <g id="patch_55">
    <path clip-path="url(#p9298b52776)" d="M 442.8 449.6256 
C 443.51032 449.6256 444.191643 449.345208 444.693915 448.846176 
C 445.196187 448.347144 445.4784 447.670217 445.4784 446.96448 
C 445.4784 446.258743 445.196187 445.581816 444.693915 445.082784 
C 444.191643 444.583752 443.51032 444.30336 442.8 444.30336 
C 442.08968 444.30336 441.408357 444.583752 440.906085 445.082784 
C 440.403813 445.581816 440.1216 446.258743 440.1216 446.96448 
C 440.1216 447.670217 440.403813 448.347144 440.906085 448.846176 
C 441.408357 449.345208 442.08968 449.6256 442.8 449.6256 
z
" style="fill:#ffffff;stroke:#000000;stroke-linejoin:miter;"/>
   </g>
   <g id="patch_56">
    <path clip-path="url(#p9298b52776)" d="M 442.8 460.27008 
C 443.51032 460.27008 444.191643 459.989688 444.693915 459.490656 
C 445.196187 458.991624 445.4784 458.314697 445.4784 457.60896 
C 445.4784 456.903223 445.196187 456.226296 444.693915 455.727264 
C 444.191643 455.228232 443.51032 454.94784 442.8 454.94784 
C 442.08968 454.94784 441.408357 455.228232 440.906085 455.727264 
C 440.403813 456.226296 440.1216 456.903223 440.1216 457.60896 
C 440.1216 458.314697 440.403813 458.991624 440.906085 459.490656 
C 441.408357 459.989688 442.08968 460.27008 442.8 460.27008 
z
" style="fill:#ffffff;stroke:#000000;stroke-linejoin:miter;"/>
   </g>
   <g id="patch_57">
    <path clip-path="url(#p9298b52776)" d="M 710.64 438.98112 
C 711.35032 438.98112 712.031643 438.700728 712.533915 438.201696 
C 713.036187 437.702664 713.3184 437.025737 713.3184 436.32 
C 713.3184 435.614263 713.036187 434.937336 712.533915 434.438304 
C 712.031643 433.939272 711.35032 433.65888 710.64 433.65888 
C 709.92968 433.65888 709.248357 433.939272 708.746085 434.438304 
C 708.243813 434.937336 707.9616 435.614263 707.9616 436.32 
C 707.9616 437.025737 708.243813 437.702664 708.746085 438.201696 
C 709.248357 438.700728 709.92968 438.98112 710.64 438.98112 
z
" style="fill:#ffffff;stroke:#000000;stroke-linejoin:miter;"/>
   </g>
  </g>
 </g>
 <defs>
  <clipPath id="p9298b52776">
   <rect height="665.28" width="669.6" x="108" y="103.68"/>
  </clipPath>
 </defs>
</svg>
