<?xml version="1.0" encoding="UTF-8" standalone="no"?>
<!-- Created with Inkscape (http://www.inkscape.org/) -->

<svg
   xmlns:dc="http://purl.org/dc/elements/1.1/"
   xmlns:cc="http://creativecommons.org/ns#"
   xmlns:rdf="http://www.w3.org/1999/02/22-rdf-syntax-ns#"
   xmlns:svg="http://www.w3.org/2000/svg"
   xmlns="http://www.w3.org/2000/svg"
   xmlns:sodipodi="http://sodipodi.sourceforge.net/DTD/sodipodi-0.dtd"
   xmlns:inkscape="http://www.inkscape.org/namespaces/inkscape"
   width="5.5935917cm"
   height="2.50776cm"
   viewBox="0 0 198.19812 88.857637"
   id="svg19626"
   version="1.1"
   inkscape:version="0.91 r13725"
   sodipodi:docname="website_bistable.svg"
   inkscape:export-filename="/home/bhalla/Documents/Codes/sahilm89.github.io/assets/img/website_bistable.png"
   inkscape:export-xdpi="300"
   inkscape:export-ydpi="300">
  <defs
     id="defs19628"
     style="stroke-linecap:butt;stroke-linejoin:round">
    <marker
       inkscape:isstock="true"
       style="overflow:visible"
       id="Arrow1Mend-0-1-0-3"
       refX="0"
       refY="0"
       orient="auto"
       inkscape:stockid="Arrow1Mend">
      <path
         transform="matrix(-0.4,0,0,-0.4,-4,0)"
         style="fill:#000000;fill-opacity:1;fill-rule:evenodd;stroke:#000000;stroke-width:1pt;stroke-opacity:1"
         d="M 0,0 5,-5 -12.5,0 5,5 0,0 Z"
         id="path14444-0-7-1-0"
         inkscape:connector-curvature="0" />
    </marker>
    <marker
       inkscape:isstock="true"
       style="overflow:visible"
       id="Arrow1Mend-0-1-4-9"
       refX="0"
       refY="0"
       orient="auto"
       inkscape:stockid="Arrow1Mend">
      <path
         transform="matrix(-0.4,0,0,-0.4,-4,0)"
         style="fill:#000000;fill-opacity:1;fill-rule:evenodd;stroke:#000000;stroke-width:1pt;stroke-opacity:1"
         d="M 0,0 5,-5 -12.5,0 5,5 0,0 Z"
         id="path14444-0-7-2-0"
         inkscape:connector-curvature="0" />
    </marker>
    <marker
       inkscape:isstock="true"
       style="overflow:visible"
       id="Arrow1Mend-0-1-0-3-4"
       refX="0"
       refY="0"
       orient="auto"
       inkscape:stockid="Arrow1Mend">
      <path
         transform="matrix(-0.4,0,0,-0.4,-4,0)"
         style="fill:#000000;fill-opacity:1;fill-rule:evenodd;stroke:#000000;stroke-width:1pt;stroke-opacity:1"
         d="M 0,0 5,-5 -12.5,0 5,5 0,0 Z"
         id="path14444-0-7-1-0-9"
         inkscape:connector-curvature="0" />
    </marker>
    <marker
       inkscape:isstock="true"
       style="overflow:visible"
       id="Arrow1Mend-0-1-0-3-4-6"
       refX="0"
       refY="0"
       orient="auto"
       inkscape:stockid="Arrow1Mend">
      <path
         transform="matrix(-0.4,0,0,-0.4,-4,0)"
         style="fill:#000000;fill-opacity:1;fill-rule:evenodd;stroke:#000000;stroke-width:1pt;stroke-opacity:1"
         d="M 0,0 5,-5 -12.5,0 5,5 0,0 Z"
         id="path14444-0-7-1-0-9-4"
         inkscape:connector-curvature="0" />
    </marker>
    <style
       id="style6771"
       type="text/css">
*{stroke-linecap:butt;stroke-linejoin:round;}
  </style>
    <style
       id="style8201"
       type="text/css">
*{stroke-linecap:butt;stroke-linejoin:round;}
  </style>
    <style
       id="style10006"
       type="text/css">
*{stroke-linecap:butt;stroke-linejoin:round;}
  </style>
    <clipPath
       id="p8ecb501ddc"
       style="stroke-linecap:butt;stroke-linejoin:round">
      <rect
         height="55.439999"
         width="55.799999"
         x="9"
         y="8.6400003"
         id="rect127"
         style="stroke-linecap:butt;stroke-linejoin:round" />
    </clipPath>
    <style
       id="style12208"
       type="text/css">
*{stroke-linecap:butt;stroke-linejoin:round;}
  </style>
    <style
       id="style12841"
       type="text/css">
*{stroke-linecap:butt;stroke-linejoin:round;}
  </style>
    <style
       id="style12975"
       type="text/css">
*{stroke-linecap:butt;stroke-linejoin:round;}
  </style>
    <style
       id="style13109"
       type="text/css">
*{stroke-linecap:butt;stroke-linejoin:round;}
  </style>
    <style
       id="style24166"
       type="text/css">
*{stroke-linecap:butt;stroke-linejoin:round;}
  </style>
    <style
       id="style24758"
       type="text/css">
*{stroke-linecap:butt;stroke-linejoin:round;}
  </style>
    <defs
       id="defs24796">
      <path
         inkscape:connector-curvature="0"
         d="M 0,0 -3.5,0"
         id="md17ae75e3f"
         style="stroke:#000000;stroke-width:0.80000001;stroke-linecap:butt;stroke-linejoin:round" />
    </defs>
    <defs
       id="defs24771">
      <path
         inkscape:connector-curvature="0"
         d="M 0,0 0,3.5"
         id="mcd3c45c7a5"
         style="stroke:#000000;stroke-width:0.80000001;stroke-linecap:butt;stroke-linejoin:round" />
    </defs>
    <style
       id="style25104"
       type="text/css">
*{stroke-linecap:butt;stroke-linejoin:round;}
  </style>
    <style
       id="style25242"
       type="text/css">
*{stroke-linecap:butt;stroke-linejoin:round;}
  </style>
    <style
       id="style25390"
       type="text/css">
*{stroke-linecap:butt;stroke-linejoin:round;}
  </style>
    <style
       id="style25562"
       type="text/css">
*{stroke-linecap:butt;stroke-linejoin:round;}
  </style>
    <style
       id="style25710"
       type="text/css">
*{stroke-linecap:butt;stroke-linejoin:round;}
  </style>
    <style
       id="style25858"
       type="text/css">
*{stroke-linecap:butt;stroke-linejoin:round;}
  </style>
    <style
       id="style26006"
       type="text/css">
*{stroke-linecap:butt;stroke-linejoin:round;}
  </style>
    <style
       id="style26154"
       type="text/css">
*{stroke-linecap:butt;stroke-linejoin:round;}
  </style>
    <style
       id="style26302"
       type="text/css">
*{stroke-linecap:butt;stroke-linejoin:round;}
  </style>
    <style
       id="style26450"
       type="text/css">
*{stroke-linecap:butt;stroke-linejoin:round;}
  </style>
    <style
       id="style26598"
       type="text/css">
*{stroke-linecap:butt;stroke-linejoin:round;}
  </style>
    <style
       id="style26746"
       type="text/css">
*{stroke-linecap:butt;stroke-linejoin:round;}
  </style>
    <style
       id="style26894"
       type="text/css">
*{stroke-linecap:butt;stroke-linejoin:round;}
  </style>
    <style
       id="style27358"
       type="text/css">
*{stroke-linecap:butt;stroke-linejoin:round;}
  </style>
  </defs>
  <sodipodi:namedview
     id="base"
     pagecolor="#ffffff"
     bordercolor="#666666"
     borderopacity="1.0"
     inkscape:pageopacity="0.0"
     inkscape:pageshadow="2"
     inkscape:zoom="2.8237469"
     inkscape:cx="-27.728339"
     inkscape:cy="83.374862"
     inkscape:document-units="px"
     inkscape:current-layer="g27748"
     showgrid="false"
     units="cm"
     showguides="true"
     inkscape:guide-bbox="true"
     inkscape:window-width="1863"
     inkscape:window-height="1056"
     inkscape:window-x="57"
     inkscape:window-y="24"
     inkscape:window-maximized="1"
     fit-margin-top="0.1"
     fit-margin-left="0.1"
     fit-margin-right="0.1"
     fit-margin-bottom="0.1">
    <sodipodi:guide
       position="3.6939896,-55.588006"
       orientation="1,0"
       id="guide22765" />
    <sodipodi:guide
       position="99.622555,-80.695148"
       orientation="1,0"
       id="guide22769" />
    <sodipodi:guide
       position="185.66717,3.5203292"
       orientation="0,1"
       id="guide22771" />
    <sodipodi:guide
       position="-168.64426,-114.93521"
       orientation="0,1"
       id="guide23956" />
    <sodipodi:guide
       position="183.14954,-25.681656"
       orientation="0,1"
       id="guide23976" />
    <sodipodi:guide
       position="94.371232,-85.708278"
       orientation="0,1"
       id="guide24313" />
    <sodipodi:guide
       position="210.27986,87.336991"
       orientation="0,1"
       id="guide24752" />
    <sodipodi:guide
       position="199.71522,-87.702639"
       orientation="0,1"
       id="guide25098" />
    <sodipodi:guide
       position="140.92399,85.338005"
       orientation="0,1"
       id="guide6640" />
    <sodipodi:guide
       position="156.64396,41.824184"
       orientation="1,0"
       id="guide6642" />
  </sodipodi:namedview>
  <metadata
     id="metadata19631">
    <rdf:RDF>
      <cc:Work
         rdf:about="">
        <dc:format>image/svg+xml</dc:format>
        <dc:type
           rdf:resource="http://purl.org/dc/dcmitype/StillImage" />
        <dc:title></dc:title>
      </cc:Work>
    </rdf:RDF>
  </metadata>
  <g
     inkscape:label="Layer 1"
     inkscape:groupmode="layer"
     id="layer1"
     transform="translate(-7.3774376,-842.55946)"
     style="stroke-linecap:butt;stroke-linejoin:round">
    <g
       id="g21017"
       transform="translate(-273.59843,566.05799)"
       style="stroke-linecap:butt;stroke-linejoin:round">
      <g
         transform="matrix(0.64135544,0,0,0.6413554,500.34095,236.94069)"
         class="graph"
         id="graph0-58"
         style="stroke-linecap:butt;stroke-linejoin:round">
        <title
           id="title11593">K_0</title>
        <!-- a -->
        <!-- Kabc -->
        <!-- a&#45;&gt;Kabc -->
        <!-- a&#45;&gt;Kabc -->
        <!-- c -->
        <!-- b -->
        <!-- dum0 -->
        <g
           class="node"
           id="node5-93"
           style="stroke-linecap:butt;stroke-linejoin:round">
          <title
             id="title11638">dum0</title>
          <circle
             id="ellipse11640"
             cy="-92.797997"
             cx="165.79601"
             r="0"
             style="fill:#000000;stroke:#000000;stroke-linecap:butt;stroke-linejoin:round" />
        </g>
        <!-- Kabc&#45;&gt;dum0 -->
        <!-- dum0&#45;&gt;c -->
        <!-- dum0&#45;&gt;b -->
      </g>
      <g
         id="node5-1"
         class="node"
         transform="matrix(0.39957264,0,0,0.39957264,283.56749,1111.8431)"
         style="stroke-linecap:butt;stroke-linejoin:round">
        <title
           id="title5963">dum0</title>
        <circle
           style="fill:#000000;stroke:#000000;stroke-linecap:butt;stroke-linejoin:round"
           r="0"
           cx="198.196"
           cy="-103.598"
           id="ellipse5965" />
      </g>
      <flowRoot
         xml:space="preserve"
         id="flowRoot16560"
         style="font-style:normal;font-weight:normal;font-size:40px;line-height:125%;font-family:sans-serif;letter-spacing:0px;word-spacing:0px;fill:#000000;fill-opacity:1;stroke:none;stroke-width:1px;stroke-linecap:butt;stroke-linejoin:miter;stroke-opacity:1"
         transform="translate(262.85714,599.47131)"><flowRegion
           id="flowRegion16562"
           style="stroke-linecap:butt;stroke-linejoin:round"><rect
             id="rect16564"
             width="45.999996"
             height="71.000008"
             x="865"
             y="-18.338562"
             style="stroke-linecap:butt;stroke-linejoin:round" /></flowRegion><flowPara
           id="flowPara16566"
           style="stroke-linecap:butt;stroke-linejoin:round" /></flowRoot>      <g
         id="g27748"
         style="stroke-linecap:butt;stroke-linejoin:round">
        <g
           transform="matrix(1.9093081,0,0,1.8692654,245.61349,-624.42334)"
           style="display:inline;stroke-linecap:butt;stroke-linejoin:round"
           id="g49148">
          <g
             style="stroke-linecap:butt;stroke-linejoin:round"
             transform="matrix(0.78455187,0,0,0.78455187,-0.66714461,11.910981)"
             id="g36364">
            <g
               style="stroke-linecap:butt;stroke-linejoin:round"
               id="g72327">
              <g
                 style="stroke-linecap:butt;stroke-linejoin:round"
                 transform="matrix(2.1863152,0,0,2.1863152,4.4698185,-711.39046)"
                 id="g36270">
                <g
                   id="graph0-9"
                   class="graph"
                   transform="matrix(0.2052879,0,0,0.20528789,10.429397,631.56593)"
                   style="display:inline;stroke-linecap:butt;stroke-linejoin:round">
                  <title
                     id="title14235-2">model_0</title>
                  <!-- a -->
                  <g
                     style="fill:#808000;stroke:#808000;stroke-linecap:butt;stroke-linejoin:round"
                     id="node1-6"
                     class="node">
                    <title
                       id="title14242-4">a</title>
                    <circle
                       style="fill:#808000;stroke:#808000;stroke-width:2;stroke-linecap:butt;stroke-linejoin:round"
                       r="19.6"
                       cx="46.751701"
                       cy="-47.799"
                       id="ellipse14244-9" />
                  </g>
                  <!-- Dab -->
                  <g
                     style="stroke-linecap:butt;stroke-linejoin:round"
                     id="node4-0"
                     class="node">
                    <title
                       id="title14249-4">Dab</title>
                    <polygon
                       style="fill:none;stroke:#000000;stroke-width:2;stroke-linecap:butt;stroke-linejoin:round"
                       points="11,-94.5507 11,-94.5507 -2.66454e-15,-94.5507 -2.66454e-15,-83.5507 11,-83.5507 "
                       id="polygon14251-8" />
                  </g>
                  <!-- a&#45;&gt;Dab -->
                  <g
                     style="stroke-linecap:butt;stroke-linejoin:round"
                     id="edge1-7"
                     class="edge">
                    <title
                       id="title14254-1">a-&gt;Dab</title>
                    <path
                       style="fill:none;stroke:#000000;stroke-width:2;stroke-linecap:butt;stroke-linejoin:round"
                       inkscape:connector-curvature="0"
                       d="m 32.3238,-62.2268 c -7.249,-7.249 -15.6239,-15.624 -21.0608,-21.0609"
                       id="path14256-7" />
                  </g>
                  <!-- c -->
                  <g
                     style="fill:#000080;stroke:#000080;stroke-linecap:butt;stroke-linejoin:round"
                     id="node2-2"
                     class="node">
                    <title
                       id="title14259-7">c</title>
                    <circle
                       style="fill:#000080;stroke:#000080;stroke-width:2;stroke-linecap:butt;stroke-linejoin:round"
                       r="19.6"
                       cx="133.002"
                       cy="-89.050697"
                       id="ellipse14261-2" />
                  </g>
                  <!-- Jbca -->
                  <g
                     style="stroke-linecap:butt;stroke-linejoin:round"
                     id="node5-61"
                     class="node">
                    <title
                       id="title14266-0">Jbca</title>
                    <polygon
                       style="fill:none;stroke:#000000;stroke-width:2;stroke-linecap:butt;stroke-linejoin:round"
                       points="93.5034,-94.5507 93.5034,-94.5507 82.5034,-94.5507 82.5034,-83.5507 93.5034,-83.5507 "
                       id="polygon14268-6" />
                  </g>
                  <!-- c&#45;&gt;Jbca -->
                  <g
                     style="stroke-linecap:butt;stroke-linejoin:round"
                     id="edge4-1"
                     class="edge">
                    <title
                       id="title14271-5">c-&gt;Jbca</title>
                    <path
                       style="fill:none;stroke:#000000;stroke-width:2;stroke-linecap:butt;stroke-linejoin:round;stroke-dasharray:5, 2"
                       inkscape:connector-curvature="0"
                       d="m 113.134,-89.0507 c -2.46,0 -4.963,0 -7.389,0"
                       id="path14273-9" />
                    <circle
                       style="fill:none;stroke:#000000;stroke-width:2;stroke-linecap:butt;stroke-linejoin:round"
                       r="6"
                       cx="99.532402"
                       cy="-89.050697"
                       id="ellipse14275-4" />
                  </g>
                  <!-- b -->
                  <g
                     style="fill:#800000;stroke:#800000;stroke-linecap:butt;stroke-linejoin:round"
                     id="node3-9-3"
                     class="node">
                    <title
                       id="title14278-0">b</title>
                    <circle
                       style="fill:#800000;stroke:#800000;stroke-width:2;stroke-linecap:butt;stroke-linejoin:round"
                       r="19.6"
                       cx="46.751701"
                       cy="-130.302"
                       id="ellipse14280-9" />
                  </g>
                  <!-- b&#45;&gt;Dab -->
                  <g
                     style="stroke-linecap:butt;stroke-linejoin:round"
                     id="edge3-7"
                     class="edge">
                    <title
                       id="title14285-7">b-&gt;Dab</title>
                    <path
                       style="fill:none;stroke:#000000;stroke-width:2;stroke-linecap:butt;stroke-linejoin:round;stroke-dasharray:5, 2"
                       inkscape:connector-curvature="0"
                       d="m 37.7551,-112.284 c -4.8444,5.647 -10.8499,11.534 -16.4086,16.0514"
                       id="path14287-1" />
                    <circle
                       style="fill:none;stroke:#000000;stroke-width:2;stroke-linecap:butt;stroke-linejoin:round"
                       r="6.00002"
                       cx="16.073601"
                       cy="-92.721802"
                       id="ellipse14289-1" />
                  </g>
                  <!-- b&#45;&gt;Jbca -->
                  <g
                     style="stroke:#000000;stroke-linecap:butt;stroke-linejoin:round"
                     id="edge2-5"
                     class="edge">
                    <title
                       id="title14292-9">b-&gt;Jbca</title>
                    <path
                       style="fill:none;stroke:#000000;stroke-width:2;stroke-linecap:butt;stroke-linejoin:round"
                       inkscape:connector-curvature="0"
                       d="m 61.1795,-115.875 c 7.249,7.249 15.624,15.624 21.0608,21.0613"
                       id="path14294-7" />
                  </g>
                  <!-- Dab&#45;&gt;b -->
                  <g
                     style="stroke-linecap:butt;stroke-linejoin:round"
                     id="edge5-7"
                     class="edge">
                    <title
                       id="title14297-6">Dab-&gt;b</title>
                    <path
                       style="fill:none;stroke:#000000;stroke-width:2;stroke-linecap:butt;stroke-linejoin:round"
                       inkscape:connector-curvature="0"
                       d="M 5.84834,-94.6358 C 8.21156,-99.8699 14.4159,-107.511 21.3395,-114.436"
                       id="path14299-7" />
                    <polygon
                       style="fill:#000000;stroke:#000000;stroke-width:2;stroke-linecap:butt;stroke-linejoin:round"
                       points="19.273,-117.293 19.273,-117.293 28.987,-121.523 24.0309,-112.158 "
                       id="polygon14301-3" />
                  </g>
                  <!-- Jbca&#45;&gt;a -->
                  <g
                     style="stroke-linecap:butt;stroke-linejoin:round"
                     id="edge6-6"
                     class="edge">
                    <title
                       id="title14304-5">Jbca-&gt;a</title>
                    <path
                       style="fill:none;stroke:#000000;stroke-width:2;stroke-linecap:butt;stroke-linejoin:round"
                       inkscape:connector-curvature="0"
                       d="m 82.2675,-83.3148 c -3.7746,3.7746 -8.9738,8.9737 -14.2301,14.2301"
                       id="path14306-6" />
                    <polygon
                       style="fill:#000000;stroke:#000000;stroke-width:2;stroke-linecap:butt;stroke-linejoin:round"
                       points="70.5086,-66.6061 70.5086,-66.6061 60.9626,-62.0099 65.5588,-71.5559 "
                       id="polygon14308-3" />
                  </g>
                </g>
              </g>
            </g>
          </g>
          <g
             style="stroke-linecap:butt;stroke-linejoin:round"
             transform="matrix(0,0.51010338,-0.51010329,0,274.57619,521.722)"
             id="g46585">
            <polygon
               transform="matrix(0.6417228,0,0,0.64172284,-76.131609,496.04955)"
               id="polygon10656-3"
               points="75.798,-53.299 64.798,-53.299 64.798,-42.299 75.798,-42.299 75.798,-53.299 "
               style="display:inline;fill:none;stroke:#000000;stroke-width:2;stroke-linecap:butt;stroke-linejoin:round" />
            <path
               id="path10661-8"
               d="m -44.159824,465.37584 c 3.551744,0 6.89974,0 9.327314,0"
               inkscape:connector-curvature="0"
               style="display:inline;fill:none;stroke:#000000;stroke-width:1.28344536;stroke-linecap:butt;stroke-linejoin:round" />
            <polygon
               transform="matrix(0.6417228,0,0,0.64172284,-76.131609,496.04955)"
               id="polygon10663-0"
               points="49.7575,-47.2991 49.7575,-47.7991 49.7575,-48.2991 39.7575,-47.799 39.7575,-47.799 49.7576,-43.2991 44.7575,-47.299 "
               style="display:inline;fill:#000000;stroke:#000000;stroke-width:2;stroke-linecap:butt;stroke-linejoin:round" />
            <path
               id="path10675-5"
               d="m -27.302343,465.37584 c 2.410631,0 5.756831,0 9.315377,0"
               inkscape:connector-curvature="0"
               style="display:inline;fill:none;stroke:#000000;stroke-width:1.28344536;stroke-linecap:butt;stroke-linejoin:round" />
            <polygon
               transform="matrix(0.6417228,0,0,0.64172284,-76.131609,496.04955)"
               id="polygon10677-6"
               points="90.7024,-48.2991 90.7024,-47.7991 90.7024,-47.2991 100.702,-47.799 100.702,-47.799 90.7024,-52.2991 95.7024,-48.299 "
               style="display:inline;fill:#000000;stroke:#000000;stroke-width:2;stroke-linecap:butt;stroke-linejoin:round" />
          </g>
        </g>
        <g
           id="g6702"
           transform="translate(-6,2)"
           style="stroke-linecap:butt;stroke-linejoin:round">
          <text
             sodipodi:linespacing="125%"
             id="text13299-0"
             y="359.66931"
             x="448.52841"
             style="font-style:normal;font-variant:normal;font-weight:normal;font-stretch:normal;font-size:12.5px;line-height:125%;font-family:Arial;-inkscape-font-specification:'Arial, Normal';text-align:center;letter-spacing:0px;word-spacing:0px;writing-mode:lr-tb;text-anchor:middle;fill:#000000;fill-opacity:1;stroke:none;stroke-width:1px;stroke-linecap:butt;stroke-linejoin:miter;stroke-opacity:1"
             xml:space="preserve"><tspan
               y="359.66931"
               x="448.52841"
               style="font-size:12.5px;stroke-linecap:butt;stroke-linejoin:round"
               id="tspan13301-3"
               sodipodi:role="line">Time</tspan></text>
          <g
             id="g24981"
             transform="translate(-12.535671,-215.7927)"
             style="stroke-linecap:butt;stroke-linejoin:round">
            <g
               style="stroke-linecap:butt;stroke-linejoin:round"
               transform="matrix(1.25,0,0,1.25,121.56378,428.29173)"
               id="figure_1-7">
              <g
                 transform="translate(232.88206,44.196595)"
                 style="stroke-linecap:butt;stroke-linejoin:round"
                 id="axes_1-12">
                <g
                   style="stroke-linecap:butt;stroke-linejoin:round"
                   id="g24966">
                  <text
                     style="font-style:normal;font-weight:normal;font-size:8px;font-family:Arial;text-anchor:end;stroke-linecap:butt;stroke-linejoin:round"
                     x="47.649464"
                     y="61.52108"
                     id="text24804">LOW</text>
                  <text
                     style="font-style:normal;font-weight:normal;font-size:8px;font-family:Arial;text-anchor:end;stroke-linecap:butt;stroke-linejoin:round"
                     x="49.454678"
                     y="14.459599"
                     id="text24813">HIGH</text>
                  <path
                     inkscape:connector-curvature="0"
                     clip-path="url(#pd9788a043c)"
                     d="m 11.536364,14.999556 0.126754,4.963737 0.02535,0 0.101404,-3.693903 0.02535,1.704879 0.02535,0 0.202808,-1.704879 0.126755,1.420732 0.02535,0 0.101403,-0.852439 0.126755,1.989025 0.02535,0 0.0507,-0.568293 0.0507,1.420732 0.02535,-1.704878 0.02535,0 0.101404,-1.420732 0.152106,1.420732 0.0507,0 0.07605,-0.284147 0.126755,5.682928 0.126755,14.775612 0.02535,0 0.0507,4.830489 0.0507,-14.20732 0.02535,16.764638 0.02535,0 0.101404,-5.682928 0.02535,1.989024 0.02535,0 0.0507,-1.136585 0.02535,1.989025 0.02535,0 0.0507,-2.841464 0.0507,1.989024 0.101404,9.376831 0.126755,-13.639026 0.02535,0 0.0507,10.22927 0.07605,-1.704879 0.02535,0 0.0507,1.420732 0.02535,-2.841464 0.07605,0 0.101404,-6.819513 0.126755,10.22927 0.02535,0 0.126755,-8.524392 0.02535,0 0.101404,7.956099 0.02535,-3.12561 0.02535,0 0.0507,-0.568293 0.0507,-7.671952 0.02535,9.660977 0.0507,-8.808538 0.02535,0 0.101404,8.240245 0.126755,-6.819513 0.02535,0 0.0507,1.989025 0.02535,-2.841464 0.02535,0 0.126754,5.682927 0.02535,0 0.0507,1.136586 0.02535,-1.704878 0.02535,0 0.0507,5.682928 0.0507,-2.273172 0.101404,-19.606101 0.02535,7.671953 0.02535,0 0.126755,7.10366 0.02535,0 0.101403,-7.956099 0.101404,9.376831 0.02535,-3.97805 0.02535,0 0.0507,-3.12561 0.02535,5.967074 0.02535,0 0.126755,5.398782 0.02535,0 0.101404,-14.20732 0.0507,11.081709 0.07605,-0.568293 0.02535,0 0.0507,-5.398781 0.0507,3.693903 0.202808,3.409757 0.0507,-7.387806 0.07605,0.852439 0.02535,0 0.101404,9.092684 0.02535,-2.557317 0.02535,0 0.0507,-0.568293 0.0507,-5.114635 0.0507,3.12561 0.0507,3.409757 0.0507,-3.409757 0.0507,-1.136585 0.0507,4.830488 0.0507,-1.420732 0.101404,-2.273171 0.02535,0.852439 0.02535,0 0.0507,1.136586 0.0507,-2.841464 0.07605,0.852439 0.02535,0 0.0507,7.956099 0.0507,-2.841464 0.101404,-7.956099 0.02535,2.557318 0.02535,0 0.0507,-6.819514 0.02535,7.10366 0.02535,0 0.126755,-1.136585 0.02535,0 0.0507,-4.830489 0.0507,4.262196 0.0507,5.682928 0.0507,-5.398782 0.0507,-2.557317 0.02535,4.830488 0.02535,0 0.202808,-5.398781 0.101404,2.273171 0.0507,7.387806 0.0507,-5.682928 0.0507,-0.852439 0.0507,7.671953 0.07605,-1.136586 0.02535,0 0.0507,-2.841464 0.02535,4.546343 0.02535,0 0.101404,-8.808538 0.0507,8.524391 0.0507,-5.682928 0.0507,0.568293 0.101403,-26.709761 0.02535,0.284147 0.02535,0 0.0507,-0.284147 0.02535,0.568293 0.02535,0 0.0507,-1.420732 0.0507,4.546342 0.0507,-1.989024 0.126755,-1.989025 0.02535,0 0.0507,0.284146 0.0507,2.841464 0.0507,-2.273171 0.0507,-0.284146 0.101404,4.546342 0.02535,-1.420732 0.02535,0 0.152106,-4.830489 0.126755,2.841464 0.02535,0 0.0507,-1.704878 0.0507,1.136586 0.101403,1.704878 0.02535,-0.568293 0.02535,0 0.0507,-3.12561 0.07605,1.136585 0.02535,0 0.0507,1.989025 0.0507,-0.852439 0.0507,-1.136586 0.0507,1.136586 0.0507,6.819513 0.02535,-7.103659 0.02535,0 0.0507,-1.136586 0.0507,1.136586 0.0507,0.852439 0.02535,-1.420732 0.02535,0 0.0507,-1.136586 0.02535,2.557318 0.02535,0 0.0507,0.568292 0.0507,-1.989024 0.02535,4.262196 0.02535,0 0.0507,-4.546343 0.07605,1.420732 0.02535,0 0.0507,-1.420732 0.02535,2.557318 0.02535,0 0.0507,-2.841464 0.07605,0.284146 0.02535,0 0.126755,2.841464 0.02535,0 0.152106,-2.841464 0.0507,1.420732 0.02535,-2.273171 0.02535,0 0.152105,1.989025 0.0507,-0.568293 0.101404,-0.852439 0.101404,5.682928 0.02535,-3.693903 0.02535,0 0.101404,-2.557318 0.0507,1.420732 0.0507,0.284147 0.101403,-1.989025 0.02535,1.136585 0.02535,0 0.101404,-0.284146 0.101404,2.557317 0.0507,-3.693903 0.0507,3.125611 0.0507,1.136585 0.02535,-2.557317 0.02535,0 0.0507,-1.136586 0.02535,1.704879 0.02535,0 0.0507,5.398781 0.02535,-6.819513 0.02535,0 0.101404,2.841463 0.0507,-1.704878 0.101404,23.015858 0.07605,-1.704878 0.02535,0 0.101404,6.535367 0.0507,-7.956099 0.0507,0.284146 0.0507,6.535367 0.02535,-12.786588 0.02535,0 0.152106,16.480491 0.126755,-6.535367 0.02535,0 0.0507,3.97805 0.02535,-5.967075 0.02535,0 0.152106,6.535367 0.0507,-9.092684 0.02535,10.797563 0.02535,0 0.0507,0.852439 0.101404,-9.376831 0.02535,1.704878 0.02535,0 0.101404,7.387807 0.0507,-10.229271 0.0507,9.092685 0.101404,-5.682928 0.0507,7.10366 0.02535,-9.092685 0.02535,0 0.0507,5.682928 0.02535,-10.797563 0.02535,0 0.126755,11.08171 0.02535,0 0.0507,-2.841464 0.07605,0.852439 0.02535,0 0.0507,-6.251221 0.0507,0.284147 0.202807,8.240245 0.0507,-5.682928 0.02535,5.967074 0.02535,0 0.0507,-2.841464 0.02535,3.97805 0.02535,0 0.101404,-8.524392 0.0507,6.535367 0.0507,-0.284146 0.0507,-8.524392 0.0507,7.956099 0.0507,0 0.0507,-5.398781 0.0507,2.273171 0.126755,7.387806 0.02535,0 0.101404,-11.650002 0.02535,3.409757 0.02535,0 0.0507,-3.693904 0.02535,5.682928 0.02535,0 0.101404,-4.546342 0.0507,15.059759 0.0507,-11.650002 0.0507,1.989024 0.0507,-0.284146 0.0507,-1.989025 0.126755,11.365856 0.02535,0 0.101404,-19.037808 0.0507,11.650002 0.07605,-0.284147 0.02535,0 0.126754,-2.841464 0.02535,0 0.0507,3.97805 0.02535,-4.546342 0.02535,0 0.0507,2.841464 0.0507,-1.136586 0.0507,-5.398781 0.02535,7.103659 0.02535,0 0.0507,-1.136585 0.02535,1.989025 0.02535,0 0.0507,0.852439 0.02535,-1.420732 0.02535,0 0.101403,-3.693903 0.0507,3.978049 0.02535,-4.830488 0.02535,0 0.101404,7.671952 0.0507,-3.409757 0.101404,-2.273171 0.0507,4.830489 0.0507,-1.420732 0.101404,-6.251221 0.0507,-9.660977 0.0507,7.671953 0.101404,10.22927 0.02535,-7.671953 0.02535,0 0.101404,-3.12561 0.101404,10.797563 0.02535,-5.114635 0.02535,0 0.101404,3.693903 0.0507,-7.956099 0.0507,7.10366 0.0507,-0.284147 0.0507,-2.273171 0.0507,1.136586 0.0507,0 0.0507,2.841464 0.02535,-6.251221 0.02535,0 0.101404,6.251221 0.0507,-8.808539 0.0507,1.989025 0.152105,6.251221 0.02535,-0.284147 0.02535,0 0.0507,-8.524391 0.0507,4.830488 0.0507,3.693903 0.02535,-4.546342 0.02535,0 0.0507,0 0.0507,0.284146 0.101404,-6.535367 0.02535,4.546343 0.02535,0 0.101403,3.978049 0.07605,1.989025 0.0507,-10.797563 0.02535,0 0.0507,10.797563 0.0507,-2.557318 0.0507,-3.693903 0.0507,10.513417 0.07605,-3.12561 0.02535,0 0.101404,-10.229271 0.02535,8.524392 0.02535,0 0.0507,1.136586 0.101404,-12.786588 0.0507,13.070734 0.07605,-2.273171 0.02535,0 0.101404,-3.978049 0.0507,3.409756 0.0507,-2.557317 0.0507,-1.420732 0.0507,5.967074 0.07605,-1.989025 0.02535,0 0.101404,3.693903 0.0507,-5.967074 0.07605,1.136586 0.02535,0 0.101404,-3.97805 0.0507,7.671953 0.0507,-7.387806 0.126755,4.546342 0.02535,0 0.152105,-12.502441 0.02535,3.409756 0.02535,0 0.0507,-2.841464 0.101404,16.196345 0.02535,-7.671953 0.02535,0 0.152106,8.240246 0.101403,-7.671953 0.02535,2.841464 0.02535,0 0.0507,-3.409757 0.0507,0.568293 0.101404,7.10366 0.07605,-3.97805 0.07605,0 0.101404,-2.841464 0.0507,-5.398781 0.0507,2.273171 0.0507,10.513417 0.0507,-5.682928 0.101404,4.830488 0.126755,-5.114635 0.02535,0 0.0507,0.852439 0.152106,-6.819513 0.0507,8.808538 0.0507,-3.409757 0.101403,-3.978049 0.02535,1.136586 0.02535,0 0.0507,7.956099 0.0507,-3.125611 0.0507,0 0.126755,2.841464 0.02535,0 0.101404,-5.398781 0.101404,4.830488 0.02535,-1.989024 0.02535,0 0.0507,-6.819514 0.0507,2.273171 0.0507,6.819514 0.0507,-5.398782 0.152106,6.819514 0.0507,-0.568293 0.101404,-20.174394 0.02535,4.262196 0.02535,0 0.101403,15.912198 0.02535,-2.557318 0.02535,0 0.101404,-11.365855 0.02535,5.114635 0.02535,0 0.0507,7.387806 0.0507,-7.387806 0.0507,3.978049 0.02535,-5.114635 0.02535,0 0.0507,2.841464 0.0507,-7.387806 0.02535,11.650002 0.02535,0 0.101403,3.409757 0.02535,-2.841464 0.02535,0 0.126755,-5.682928 0.02535,0 0.0507,8.808538 0.0507,-8.240245 0.177457,6.535367 0.02535,0 0.228158,-12.218295 0.02535,0 0.152106,10.513416 0.0507,3.409757 0.0507,-1.989025 0.0507,0.284147 0.202807,-4.546343 0.0507,9.660978 0.02535,-13.639027 0.02535,0 0.0507,1.420732 0.02535,-1.704878 0.02535,0 0.0507,-2.841464 0.0507,8.240245 0.07605,-1.420732 0.02535,0 0.101404,-7.10366 0.0507,11.934149 0.0507,-7.956099 0.101403,9.092684 0.0507,-12.786587 0.0507,8.240245 0.0507,1.704878 0.126755,-6.535367 0.02535,0 0.101404,5.967075 0.02535,-3.125611 0.02535,0 0.0507,2.273171 0.0507,-0.284146 0.101404,-10.22927 0.0507,-3.693903 0.02535,7.10366 0.02535,0 0.152106,12.502441 0.02535,-5.682928 0.02535,0 0.0507,-2.273171 0.02535,5.114635 0.02535,0 0.101404,-4.262196 0.02535,1.989025 0.02535,0 0.0507,-3.12561 0.0507,1.989024 0.0507,1.420732 0.02535,-1.989025 0.02535,0 0.0507,3.409757 0.0507,-1.989025 0.0507,0.568293 0.02535,-0.852439 0.02535,0 0.0507,-3.693903 0.02535,4.262196 0.0507,-3.409757 0.02535,0 0.0507,-3.978049 0.0507,13.070734 0.07605,-4.546343 0.02535,0 0.0507,-1.420732 0.02535,1.989025 0.02535,0 0.0507,-6.535367 0.0507,0.568293 0.0507,3.978049 0.0507,-0.852439 0.0507,-5.398781 0.0507,3.12561 0.0507,1.704878 0.0507,-1.136585 0.0507,-0.852439 0.0507,8.524392 0.0507,-7.387807 0.0507,2.273171 0.0507,-6.819513 0.02535,11.650002 0.02535,0 0.304212,-30.119517 0.02535,1.136585 0.07605,0 0.126755,-3.12561 0.02535,0 0.126755,0.852439 0.02535,0 0.0507,4.830489 0.0507,-3.409757 0.126755,-1.420732 0.07605,0 0.101404,3.978049 0.02535,-1.989024 0.02535,0 0.126755,-2.841464 0.02535,0 0.101404,4.262196 0.0507,-0.85244 0.126755,-2.841463 0.02535,0 0.101403,3.978049 0.0507,-4.262196 0.02535,4.546342 0.02535,0 0.101404,25.289029 0.0507,-2.557317 0.101404,-5.967074 0.0507,3.12561 0.152106,5.398781 0.0507,-6.819513 0.0507,4.546342 0.0507,4.546343 0.0507,-2.557318 0.0507,-7.671953 0.07605,0.568293 0.02535,0 0.0507,6.251221 0.02535,-9.945124 0.02535,0 0.0507,8.524392 0.07605,-2.841464 0.02535,0 0.0507,-5.682928 0.0507,0.284146 0.101404,11.08171 0.02535,-3.409757 0.02535,0 0.0507,5.682928 0.0507,-4.262196 0.101404,-4.262196 0.0507,7.671953 0.07605,-0.852439 0.02535,0 0.152105,-10.513417 0.101404,9.945124 0.02535,-4.546343 0.02535,0 0.0507,-3.693903 0.02535,6.535367 0.02535,0 0.0507,3.409757 0.02535,-4.262196 0.02535,0 0.0507,-3.978049 0.0507,2.557317 0.0507,0.852439 0.02535,-1.989024 0.02535,0 0.0507,0.284146 0.101404,-2.841464 0.101404,7.387806 0.02535,-3.978049 0.02535,0 0.101404,7.387806 0.0507,-6.819513 0.0507,2.273171 0.0507,2.841464 0.177456,-21.595126 0.02535,0 0.0507,19.037808 0.07605,-4.546342 0.02535,0 0.0507,0.568293 0.02535,-1.136586 0.02535,0 0.152106,5.114635 0.0507,-0.852439 0.101404,-5.967074 0.126754,12.218295 0.02535,0 0.101404,-12.502442 0.02535,11.08171 0.02535,0 0.152106,-13.639027 0.152106,9.945124 0.0507,-2.841464 0.02535,3.409756 0.02535,0 0.0507,0.85244 0.101404,-4.830489 0.0507,4.262196 0.07605,-0.852439 0.02535,0 0.101404,-12.218295 0.07605,5.398781 0.02535,0 0.0507,-0.284146 0.0507,4.830488 0.0507,-3.12561 0.0507,-3.12561 0.126755,8.808538 0.02535,0 0.101404,-5.398781 0.0507,3.978049 0.0507,-1.704878 0.0507,-0.284147 0.0507,3.97805 0.0507,-3.125611 0.0507,-1.704878 0.02535,3.693903 0.02535,0 0.202808,-3.978049 0.0507,0.284146 0.152106,4.546342 0.101404,-11.934148 0.07605,6.819513 0.02535,0 0.0507,-3.409756 0.02535,7.103659 0.02535,0 0.126755,-2.273171 0.02535,0 0.0507,2.273171 0.02535,-5.398781 0.02535,0 0.0507,9.092685 0.0507,-3.97805 0.0507,-9.376831 0.0507,6.535367 0.152105,3.12561 0.126755,-26.141468 0.02535,0 0.0507,1.420732 0.02535,-3.12561 0.02535,0 0.101404,1.420732 0.0507,-1.136586 0.02535,1.704879 0.02535,0 0.0507,-1.989025 0.02535,4.262196 0.02535,0 0.101403,-5.398782 0.02535,0.568293 0.02535,0 0.101404,2.557318 0.0507,-2.557318 0.0507,0.568293 0.101404,9.660977 0.07605,-1.136585 0.02535,0 0.152105,19.890247 0.101404,0.852439 0.152106,-8.524391 0.0507,10.22927 0.0507,-8.808538 0.101404,4.546342 0.0507,-4.262196 0.02535,7.956099 0.02535,0 0.101403,-6.251221 0.02535,1.136586 0.02535,0 0.0507,0.284146 0.0507,9.376831 0.02535,-13.35488 0.02535,0 0.0507,4.546342 0.0507,-3.409757 0.0507,-5.114635 0.02535,7.956099 0.02535,0 0.0507,-0.284146 0.101404,-9.660977 0.126754,9.37683 0.07605,0 0.0507,4.546343 0.02535,-7.671953 0.02535,0 0.152106,11.650002 0.0507,-6.535367 0.0507,1.136586 0.0507,3.12561 0.02535,-3.978049 0.02535,0 0.0507,1.704878 0.02535,-3.693903 0.02535,0 0.0507,-7.387806 0.07605,2.557317 0.02535,0 0.202808,10.797563 0.101404,-17.33293 0.02535,3.693903 0.02535,0 0.0507,0.284147 0.0507,11.081709 0.07605,-1.989025 0.02535,0 0.202808,-10.22927 0.126755,13.354881 0.02535,0 0.0507,-7.671953 0.0507,0.284146 0.0507,5.398782 0.0507,-2.557318 0.0507,-0.284146 0.101404,5.398781 0.0507,-9.660977 0.0507,0.568293 0.0507,8.808538 0.02535,-9.092685 0.02535,0 0.126755,8.524392 0.02535,0 0.101403,-6.535367 0.02535,1.989025 0.02535,0 0.101404,-5.967074 0.0507,12.218295 0.0507,-2.273172 0.101404,-11.934148 0.0507,5.967074 0.152106,6.251221 0.0507,-10.513417 0.07605,2.841464 0.02535,0 0.0507,7.956099 0.0507,-1.136585 0.126755,-10.229271 0.02535,0 0.0507,11.08171 0.0507,-7.10366 0.304211,9.660977 0.202808,-8.240245 0.0507,5.967074 0.0507,-1.420732 0.0507,-5.967074 0.0507,4.262196 0.101404,-3.97805 0.0507,7.956099 0.0507,-5.398781 0.101404,2.557317 0.152106,-3.693903 0.0507,0 0.0507,4.262196 0.0507,-1.136585 0.0507,-6.819514 0.0507,6.251221 0.0507,0.284146 0.0507,-3.409756 0.02535,7.387806 0.02535,0 0.0507,-9.660978 0.0507,7.10366 0.101404,-7.10366 0.0507,3.125611 0.101404,5.682928 0.101404,-10.513417 0.02535,2.273171 0.02535,0 0.152105,5.682928 0.101404,-5.967074 0.02535,4.830488 0.02535,0 0.0507,2.841464 0.0507,-0.852439 0.25351,-10.513416 0.101403,13.070734 0.02535,-9.376831 0.02535,0 0.0507,-0.852439 0.101404,3.693903 0.02535,-0.852439 0.02535,0 0.0507,-4.830489 0.02535,10.797563 0.02535,0 0.0507,-0.568293 0.101404,-8.524392 0.02535,3.409757 0.02535,0 0.0507,0.852439 0.0507,-3.409757 0.0507,2.841464 0.101404,4.546343 0.101404,-5.398782 0.101404,7.671953 0.02535,-4.830489 0.02535,0 0.0507,-6.251221 0.0507,2.841464 0.0507,0.568293 0.0507,9.376831 0.02535,-10.513416 0.02535,0"
                     style="fill:none;stroke:#800000;stroke-linecap:square;stroke-linejoin:round"
                     id="path24822" />
                  <path
                     inkscape:connector-curvature="0"
                     clip-path="url(#pd9788a043c)"
                     d="m 11.536364,43.722087 50.727272,0"
                     style="fill:none;stroke:#808080;stroke-width:1.5;stroke-linecap:butt;stroke-linejoin:round;stroke-dasharray:5.55, 2.4;stroke-dashoffset:0"
                     id="path24816" />
                  <path
                     inkscape:connector-curvature="0"
                     clip-path="url(#pd9788a043c)"
                     d="m 11.536364,18.122584 50.727272,0"
                     style="fill:none;stroke:#808080;stroke-width:1.5;stroke-linecap:butt;stroke-linejoin:round;stroke-dasharray:5.55, 2.4;stroke-dashoffset:0"
                     id="path24819" />
                  <path
                     inkscape:connector-curvature="0"
                     d="M 9,63 9,8.64"
                     style="fill:none;stroke:#000000;stroke-width:0.80000001;stroke-linecap:square;stroke-linejoin:miter"
                     id="path24825" />
                  <path
                     inkscape:connector-curvature="0"
                     d="m 9,63 55.8,0"
                     style="fill:none;stroke:#000000;stroke-width:0.80000001;stroke-linecap:square;stroke-linejoin:miter"
                     id="path24828" />
                </g>
              </g>
            </g>
          </g>
          <text
             transform="matrix(0,-1,1,0,0,0)"
             xml:space="preserve"
             style="font-style:normal;font-variant:normal;font-weight:normal;font-stretch:normal;font-size:12.5px;line-height:125%;font-family:Arial;-inkscape-font-specification:'Arial, Normal';text-align:center;letter-spacing:0px;word-spacing:0px;writing-mode:lr-tb;text-anchor:middle;fill:#000000;fill-opacity:1;stroke:none;stroke-width:1px;stroke-linecap:butt;stroke-linejoin:miter;stroke-opacity:1"
             x="-312.24371"
             y="407.57162"
             id="text6674"
             sodipodi:linespacing="125%"><tspan
               sodipodi:role="line"
               id="tspan6676"
               style="font-size:12.5px;stroke-linecap:butt;stroke-linejoin:round"
               x="-312.24371"
               y="407.57162">Conc</tspan></text>
        </g>
      </g>
    </g>
  </g>
</svg>
